<?xml version="1.0" encoding="UTF-8"?>
<svg id="Layer_2" data-name="Layer 2" xmlns="http://www.w3.org/2000/svg" viewBox="0 0 601.78 625.75">
  <defs>
    <style>
      .cls-1 {
        fill: #ff9e88;
      }

      .cls-2 {
        fill: #fbe6d4;
      }

      .cls-3 {
        fill: #bd7732;
      }

      .cls-4 {
        fill: #d3b183;
      }

      .cls-5 {
        fill: #151f26;
      }

      .cls-6 {
        fill: #458683;
      }

      .cls-7 {
        fill: #628061;
      }

      .cls-8 {
        fill: #5d81a7;
      }
    </style>
  </defs>
  <g id="christmas_elements" data-name="christmas elements">
    <g id="_22" data-name="22">
      <g>
        <g>
          <path class="cls-7" d="M111.53,79.99c1.16-.41,.88,4.92,.93,5.93,.51,13.61,.32,27.23,.95,40.82,.58,12.41,1.36,24.85,1.5,37.27,.06,5.38-.31,10.9,.29,16.26,.31,2.76,1.06,5.35,1.13,8.16,.29,12.26-.5,24.41,.78,36.65,2.48,23.86,.33,47.96,1.67,71.94,.92,16.33,.71,57.4-.32,58.43-.87,.87-4.03,.51-5.12,.53-8.62,.25-17.45-.62-27.53-1.14-2.45-.12-7.92,.61-10.07-1.09-1.94-1.53-.46-4.19,.32-5.87,6.16-13.17,19.73-58.11,24.55-67.77,.84-1.68,3.63-5.39,2.65-7.39-1.36-2.8-5.9-.22-7.95,.12-2.8,.46-5.71,.68-8.53,1.05-1.39,.18-2.98,.74-3.72-.66-.75-1.44,1.55-6.12,1.96-7.59,1.78-6.61,4.97-12.72,6.8-19.28,3.12-11.25,7.26-22.08,10.64-33.26,.44-1.47,1.95-5.1,.99-6.62-.92-1.45-4.46-.51-5.73-.33-1.81,.26-7.57,3.23-8.89,2.02-1.52-1.37,.92-5.62,1.44-7.08,1.17-3.22,1.97-6.54,3.07-9.77,.87-2.53,2.04-4.91,2.63-7.52,.76-3.4,1.13-6.88,2.21-10.21,.7-2.19,4.77-13.01,5.6-16.08,.68-2.54,1.12-4.89,2.31-7.21,2.15-4.18,3.82-9.4,3.99-14.13,.39-10-14.33,2.79-17.38-2.21-.94-1.54,.54-3.73,1.11-5.13,2.1-5.18,3.68-10.41,5.99-15.51,2.49-5.52,2.81-11.72,5.02-17.34,1.19-3.04,2.91-5.82,4.06-8.88,.52-1.42,1.17-6.61,2.67-7.13Z"/>
          <path class="cls-7" d="M122.88,93.76c5.38,9.72,6.59,18.41,12.39,29.66,.83,1.62,3.93,5.59,3.23,7.55-1.89,5.29-13.2-4.92-13.66,2.01-.18,2.49,1.63,5.81,2.73,7.95,11.59,22.46,8.8,19.67,11.95,26.84,1.35,3.07,3.31,5.8,4.68,8.85,1.36,3,2.04,6.24,3.24,9.31,1.17,3.03,6.25,9.88,.78,11.12-3.69,.83-4.71-.43-14.68,2.35-1.21,.34-3.51,.65-4.26,1.85-2.33,3.76,8.04,10.83,12.47,23.65,2.06,5.97,5.92,11.38,7.51,17.51,1.5,5.76-7.33,2.79-10.65,3.34-2.08,.35-5.89,1.01-5.94,3.76-.01,1.17,.93,2.14,1.46,3.1,1.53,2.72,3.1,7.35,6.56,12.88,.78,1.26,4.29,4.93,2.5,6.36-.96,.77-2.93-.09-4.01-.23-14.04-1.72-2.83,10.65,1.6,22.34,1.31,3.49,2.7,6.73,4.81,9.82,5.7,8.32,5.59,12.27,10.13,21.58,2.29,4.68,4.52,9.55,6.47,14.37,.93,2.28,.44,4.34-1.37,6.19-1.91,1.94-5.42,2.3-7.9,3.38-3.27,1.42-6.46,4.05-9.97,4.78-2.85,.6-6.11,.4-9,.66-2.24,.2-6.04,1.43-8.29,.92-3.83-.88-1.01-15.85-1.88-26.41-1.48-18.09-.87-83.63-1.76-92.56-.28-2.96-1.09-3.6-.68-6.51,.58-4.12-1.33-17.35-1.39-29.54-.03-6.06,1.36-2.7-.14-16.91-1.25-11.87,0-23.9-1.21-35.77-1.25-12.26-1.55-39.38-1.68-50.91-.01-1.14-.9-11.02,.73-11.5,1.45-.42,4.72,7.32,5.21,8.21Z"/>
        </g>
        <path class="cls-3" d="M44.77,183.84c1.98,2.38,1.84,10.38,.9,13.76-.59,2.14-2.25,2.62-4.32,3.3-1.51,.5-3.14,1.62-4.24,.11-.66-.9-.42-2.42-.52-3.48-.25-2.53-3.52-13.28,3.35-14.32,1.59-.25,3.68-.74,4.83,.63Z"/>
        <path class="cls-5" d="M30.07,83.11c-.46-5.45-9.5,2.54-11.44,2.2-2.23-.4-.56-3.17-.12-4.68,.65-2.21,1.04-4.48,1.73-6.66,3.27-10.41,8.97-13.98,11.28-28.1,1.34-8.19-9.03-.09-11.18-3.29-1.04-1.55,.48-4.11,1-5.59,1.42-3.99,4.04-15.79,6.49-18.97,2.21-2.86,4.95,3.86,5.82,5.6,2.32,4.58,4.97,8.45,8.09,12.52,1.16,1.5,3.68,4,4.04,5.95,.34,1.86-1.33,2.14-2.11,3.58-1.74,3.21,3.13,8.5,4.74,11.07,1.38,2.21,12.59,23.08,13.45,24.72,1.13,2.16,2.89,4.87-.14,5.82-6.94,2.19-17.5-1.88-16.83,4.05,.67,5.94,7.27,9.54,14.05,22.5,1.76,3.37,5.78,6.63,6.63,10.25,.95,4.05-7.88,.94-9.96,.71-12.42-1.31-2.92,8.79,2.3,17.04,3.56,5.61,6.54,11.82,10.37,17.22,1.8,2.53,11.87,13.08,4.42,13.63-3.8,.28-7.69-.41-11.37,.79-19.2,6.29-35.58,3.18-42.53,4.68-15.37,3.3-12.53-1.43-9.66-8.87,2.04-5.31,4.31-10.56,6.64-15.75,10.56-23.45,8.55-23.14,13.57-34.67,.61-1.41,.61-3.22-1.21-3.81-1.69-.56-3.85,1.36-5.21,2.06-1.65,.87-4.52,2.57-6.48,2.27-3.86-.6,2.03-9.72,2.93-11.82,2.12-4.88,2.9-9.81,7.95-19.1,.74-1.34,2.89-3.76,2.75-5.37Z"/>
        <g>
          <path class="cls-2" d="M314.36,600.18c.16,2.36,1.06,16.8-.66,18.48-.89,.88-2.59,.71-3.31-.33-.65-.94-.2-2.55-.12-3.58,.87-10.97-.26-10.12,.01-14.85,.23-3.94,.54-10.68,.54-17h3.14c.01,5.84,.09,11.14,.27,15.08,.03,.79,.08,1.53,.12,2.2Z"/>
          <path class="cls-2" d="M573.16,247.02c.18,2.3,.4,4.7-.05,6.98-1.59,8.28-.41,13.08-1.05,23.91-1.05,17.53-2.41,28.7-2.62,30.78-.53,5.34-.34,10.8-1.2,16.1-.06,.35-.11,.7-.18,1.05-.76,4.05-2.13,7.94-2.61,12.03-.48,4.11-2.22,47.5-4.02,74.76-.49,7.39-.97,13.6-1.45,17.52-1.22,10.16-1.69,20.52-2.18,30.73-.11,2.54-.63,5.01-.79,7.53-.12,1.7-.1,4.52-1.89,5.53-1.73,.99-4.64,.1-6.58,.23-1.45,.1-2.9,.32-4.35,.43-10.78,.85-14.58,.45-24.23,1.67-1.23,.15-3.43,.7-4.46-.17-1.39-1.18-1.22-4.97-1.36-6.49-1-10.78-1.1-6.28-.84-12.79,.07-1.95-.35-3.93-.36-5.89-.02-6.79,1.89-24.62,1.91-27.33,.15-16.4,.25-26.07-.05-32.44-.37-7.66-1.35-10.55-3.58-14.58-4.5-8.14-13.01-3.86-19.83-2.62-2.36,.44-4.6,.83-6.71,2.06-4.46,2.61-7.27,6.73-7.94,11.78-3.07,23.11,.79,40.29,.12,57.3-.09,2.29-.15,5.34-.19,8.66-.17,9.63-.28,21.41-.86,22.39-1.47,2.5-7.13,1.89-9.61,2.53-2.84,.75-5.64,.82-8.56,.67-.95-.05-3.46,.14-4.19-.74-.56-.66-.2-2.57-.19-3.29,.05-1.79,.54-17.77,.84-23.09,.02-.35,.03-.67,.06-.92,.29-4.01,.84-7.94,.8-11.98-.07-6.27-.86-12.5-.46-18.76,.22-3.37,.97-23.32,.29-31.77-.1-1.26-.75-3.27,.2-4.34,1-1.12,4.06-1.11,5.38-1.54,16.2-5.23,16.53-10.39,18.57-18.56,.07-.27,.14-.53,.2-.8,1.1-4.22,2.73-9.13,1.05-13.32-4.43-11.08-17.97-33.47-28.28-53.43-2.29-4.41-5.17-8.4-7.75-12.64-1.94-3.2-3.06-6.75-4.91-9.99-1.7-3-5.83-9.09-5.03-11.52,.34-1.04,1.48-1.99,2.11-2.91,1.29-1.93,13.54-22.38,17.89-39.67,1.37-5.46,3.73-10.61,4.93-16.11,1.21-5.53,1.95-8.03,2.55-10,1.01-3.27,1.67-5.09,3.61-17.05,.78-4.78,2.05-9.43,3-14.16,.79-3.91,.95-7.91,1.78-11.82,1.03-4.86,1.97-9.83,2.44-14.79,.33-3.57,5.9-29.47,17.32-46.57,6.42-9.62,11.82-4.24,24.3,21.87,2.63,5.48,9.94,27.18,10.58,29.09,1.26,3.69,2.91,7.23,4.34,10.85,1.94,4.89,2.49,10.22,4.64,15.04,2.39,5.33,3.34,10.83,5.2,16.32,1.55,4.58,4,8.78,5.59,13.39,1.08,3.13,4.46,12.53,8.2,21.92,3.95,10,8.29,20.01,10.61,22.42,2.03,2.12,4.61,2.15,7.25,2.84,2.39,.63,2.39,1.38,2.57,3.73Zm-28.06-11.84c.07-2.61-.44-5.05-2.1-7.21-.91-1.16-22.05-4.88-28.38,6.88-1.03,1.91-.87,8.41-.74,17.09,.18,12.25,1.02,7.67,1.38,18.19,.07,1.87-.46,5.29,2.15,5.81,5.21,1.04,24.84-4.22,25.92-5.12,1.67-1.37,1.36-4.72,1.46-6.62,1.04-19.3,.08-21.34,.29-29.02Zm-27.74-73.44c.76-3.05,1.63-5.48,.26-8.52-2.5-5.51-3.09-13.04-13.39-16.61-6.5-2.27-5.48-1.59-10.66-.02-4.8,1.45-8.15,3.93-10.65,6.62-1.82,1.96-3.19,4.02-4.33,5.87-.62,1.01-1.18,1.95-1.7,2.76-1.13,1.79-1.69,3.33-2.19,5.31-.28,1.12-.94,2.04-.9,3.21,.02,.57,.32,1.68,.85,3.04,.87,2.28,2.41,5.28,4.42,7.73,8.58,10.46,12.17,9.13,16.26,9.17,2.16,.02,4.42,.08,6.56-.25,3.7-.57,8.77-3.38,10.73-6.63,1.43-2.35,2.58-4.88,3.48-7.49,.5-1.38,.91-2.78,1.26-4.18Zm-29.69,98.72c.12-2.18-.01-5.42-.34-8.96-.33-3.55-.86-7.41-1.52-10.84-.59-3.17-1.3-5.98-2.06-7.86-1.74-4.33-24.88-4.55-27.03,4.82-1.69,7.31-1.03,14.9-.34,22.39,.29,3.21,.59,6.39,.73,9.52,.1,2.39-.5,5.68,.82,7.84,.96,1.59,1.91,1.28,3.61,1.2,2.01-.09,20.14-1.25,21.82-1.82,3.24-1.12,3.09-2.39,3.04-5.56-.07-3.64,1.06-7.1,1.28-10.71Z"/>
          <path class="cls-2" d="M314.74,536.73c-.16,5.23-.78,28.27-.77,46.16h-3.14c0-4.55-.17-8.89-.65-11.78-.89-5.31-.37-10.96-.44-16.33-.06-3.46-.29-6.96-.23-10.42,.02-1.86,.14-3.71,.41-5.54,1.09-7.41,.56-14.2-.52-21.54-.39-2.64,.43-5.76,.51-8.45,.09-3,.02-6.06,.61-9.02,1.63-8.11,13.66-15.04,21.93-14.74,2.41,.08,4.58,.54,7.04,.25,3.33-.4,5.8-.54,9.11,.02,2.72,.48,5.54,.62,8.22,1.26,1.82,.43,3.36,1.29,5.27,1.37,11.83,.5,15.44-2.05,18.34,18.29,.71,5.01,.69,9.99,1.64,14.96,1.25,6.57,.08,44.34-.37,58.02-.09,2.57-.15,4.29-.16,4.79-.25,11.18,.26,23.52,.37,31.56,.02,1.68,.74,4.43-1.05,5.36-5.63,2.91-5.68-8.03-6.25-11.19-.46-2.55-.54-5.12-.48-7.7,.08-3.43,.44-6.89,.52-10.31,.17-7.07-.02-14.17,.44-21.23,.69-10.73,1.02-21.73,.68-32.47-.05-1.55-.07-3.22-.06-4.99,.07-14.84,1.68-35.83-4.11-39.23-3.84-2.24-9.79-1.46-13.97-1.38-2.88,.05-5.54,.25-8.07,.53-8.39,.92-15.23,2.64-23.38,2.25-5.97-.27-8.81-1.93-11.1,6.38-1.09,3.93,.24,16.77-.35,35.14Z"/>
        </g>
        <path class="cls-8" d="M476.34,353.89c.03,2.07-1.22,3.97-.94,5.94,.11,.8,.7,1.47,.66,2.36-.02,.56-.2,1.09-.43,1.61-.23,.53-.5,1.03-.7,1.54-.77,1.88-1.09,3.95-2.36,5.57-5.44,6.93-21,11.99-29.34,5.3-6.88-5.51-11.6-13.06-16.21-20.41-2.54-4.03-5.63-7.74-8.13-11.8-1.25-2.03-1.97-4.33-3.05-6.45-1.12-2.21-2.62-4.25-3.6-6.53-3.55-8.23-7.26-16.74-11.9-24.45-4.2-7-7.13-14.74-11.52-21.64-.27-.43-.53-.86-.78-1.3-1.73-3.08-2.92-6.42-4.42-9.63-1-2.15-2.3-4.11-3.24-6.29-.82-1.9-1.42-3.9-2.32-5.78-4.28-8.91-9.89-17.23-13.42-26.45-1.09-2.83-7.73-15.65-8.73-18.32-3.12-8.27-2.93-5.68-7.08-14.57-1.01-2.18-2.78-8.71-6.14-6.1-1.62,1.27-2.46,4.26-3.47,6.05-1.22,2.13-2.05,4.44-3.14,6.65-2.11,4.28-5.45,7.7-7.11,12.25-2.91,7.97-17.47,30.98-18.61,32.89-2.08,3.47-3.9,7.08-5.97,10.55-8.87,14.87-6.94,13.8-9.23,18.12-1.19,2.24-2.66,4.31-3.93,6.5-2.14,3.73-3.22,7.98-5.25,11.8-.56,1.04-9.06,17.74-18.51,35.1-7.84,14.38-16.34,29.21-21.49,35.99-2.44,3.21-5.46,7.48-9.07,9.44-3.44,1.88-9.13,1.28-12.43-.77-2.62-1.62-2.42-5.17-2.53-7.86-.06-1.62-.32-3.5,.18-5.08,.61-1.87,1.89-3.55,2.59-5.4,.54-1.45,.58-2.93,.94-4.43,1.1-4.68,3-8.97,6.76-18.99,2.4-6.39,3.52-15.5,14.55-34.81,2.4-4.19,3.92-8.83,6.02-13.17,1.05-2.16,2.21-4.01,2.95-6.36,4.08-12.97,19.89-38.7,30.98-60.4,2.65-5.19,7.09-19.02,27.93-53.77,4.97-8.31-1.19,4.02,12.61-24.2,.17-.35,.34-.69,.5-1.02,1.62-3.27,2.81-5.54,3.73-7.19,1.95-3.46,2.67-4.21,3.6-6.01,1.11-2.15,3.69-9.35,8.04-9.28,12.86,.19,15.89,5.61,23.75,20.27,1.05,1.97,2.45,3.6,3.32,5.69,5.17,12.32,5.09,9.95,10.04,19.06,2.23,4.1,3.97,8.38,5.96,12.6,2.36,4.96,16.91,33.9,17.42,34.78,1.68,2.95,3.49,5.78,5.1,8.76,.24,.42,.45,.85,.68,1.28,1.55,3.06,2.42,6.56,4.06,9.52,4.69,8.51,7.84,16.06,14.64,27.2,5.09,8.33,9.15,17.23,13.98,25.71,2.02,3.54,4.44,6.75,6.36,10.36,17.92,33.66,27.61,47.91,27.74,55.56Z"/>
        <g>
          <path class="cls-4" d="M370.29,498.16c2.18,3.14,2.61,18.71,2.42,34.86-.19,17.39-1.1,35.49-1.31,39.55-.37,7.53-.14,15.11-.26,22.65-.05,2.23-.14,4.48-.19,6.72-.12,3.94-.16,7.89,.32,11.81,.27,2.28,2.14,6.83-1,7.69-2.18,.6-5.05,.08-7.26,.03-27.74-.57-13.75,.85-30.5-.49-4-.32-8.62,.01-12.42-1.4-4-1.5-1.78-4.96-1.81-14.49-.01-2.45-.88-4.52-1.17-6.9-.01-.07-.01-.18-.02-.35-.15-4.72,.44-49.48,1.68-70.06,.78-13.05-1.91-25.69,.89-27.84,1.7-1.31,5.54-.54,7.52-.61,6.71-.23,13.87-.71,20.32-2.56,.79-.23,1.59-.37,2.4-.45,2.68-.28,5.49,.03,8.18,.07,5.25,.08,10.81-.25,12.2,1.77Zm-8.85,30.8c3.35-7.12-1.94-21.39-9.62-21.97-5.2-.39-12.9,3.39-14.9,5.72-.95,1.11-1.5,2.58-2.24,3.84-1.57,2.61-2.68,4.55-2.25,7.73,.93,6.74,5.02,13.19,11.77,15.18,4.5,1.34,6.8-.1,10.41-2.61,3.4-2.35,3.87-1.65,6.83-7.9Z"/>
          <path class="cls-4" d="M597.32,39.05c.24,1.87,.4,2.88-1.28,4-4.18,2.82-15.26,3.23-20.05,6.08-2.53,1.51-2.96,4.02-4.1,17.35-.23,2.71-.62,4.75-.94,7.52-.54,4.7-.86,11.5,.2,27.26,.41,6.14-.23,12.2-.4,18.34-.15,5.38,.44,10.76,.17,16.12-.18,3.61-.85,7.19-1.1,10.8-1.12,16.36,.33,19.61-3.86,7.52-8.08-23.24-8.19-26.66-8.47-31.43-.07-1.1,.15-5.37,.42-9.79,.31-5.01,.68-10.21,.79-11.24,1.51-13.37,3.15-14.66,2.76-47.5-.03-2.33,.44-3.67-1.97-4.07-9.84-1.62-14.09,3.37-14.92-.28-.75-3.32,.02-7.08-.43-10.48-.5-3.75-.29-7.57-.97-11.29-.39-2.12-.56-3.83-.56-5.21,0-7.4,4.95-5.35,8.84-5.93,6.03-.9,3.46-1.27,20.06-2.46,3.4-.25,6.85-.05,10.25,.09,3.66,.16,9.22-.08,10.85,4.03,1.34,3.39,1.44,7.22,2.54,10.68,1.03,3.24,1.72,6.48,2.16,9.86Z"/>
          <path class="cls-4" d="M579.66,227.79c.16,2.45,1.56,7.48-.67,9.17-3.02,2.29-7.38,2.56-10.9,1.59-3-.83-3.7-4-5.13-6.46-2.36-4.06-4.8-9.56-7.1-15.3-5.04-12.61-9.31-26.34-10.13-28.29-4.36-10.36-9.72-27.5-10.91-31.92-1.8-6.76-4.88-13.09-7.18-19.68-.67-1.89-.96-3.8-1.48-5.71-1.19-4.34-3.51-8.46-4.96-12.76-4.6-13.56-18.44-45.34-29.44-36.14-6.15,5.14-5.87,6.7-9.43,13.98-3.01,6.2-4.36,5.73-11.82,32.27-1.26,4.5-1.51,9.11-2.1,13.73-.34,2.73-.96,5.43-1.39,8.15-3.75,24.09-2.73,13.91-4.57,23.27-1.25,6.34-1.67,13.14-3.56,19.36-.09,.34-.2,.68-.32,1.02-.43,1.27-1.13,2.39-1.61,3.64-.91,2.36-1.54,8.95-2.47,11.85-.72,2.25-1.87,4.34-2.66,6.56-3.12,8.61-.01,7.42-14.21,34.27-4.38,8.31-5.63,11.26-10.28,3.24-2.13-3.68-3.89-7.57-5.85-11.33-2.59-4.94-6.11-8.86-3.36-19.64,.27-1.09,.57-2.16,.85-3.25,1.73-6.41,3.64-12.76,4.85-19.3,.33-1.77,.26-3.49,.43-5.27,.17-1.96,.88-3.77,1.35-5.67,1.03-4.16,1-8.49,2.5-12.54,2.49-6.74,3.21-14.13,5.03-21.07,.8-3.05,2.32-5.82,2.93-8.91,.36-1.8,.24-3.64,.82-5.38,.73-2.15,1.57-4.24,2.18-6.45,1.11-4.15,1.89-8.19,3.51-12.19,2.38-5.87,1.25-10.58,6.23-22.03,1.62-3.72,2.59-7.63,4.5-11.23,1.1-2.06,2.57-3.98,3.52-6.12,.59-1.35,.67-2.75,1.05-4.16,.96-3.44,2.62-6.96,3.87-10.32,.08-.2,.16-.42,.25-.62,1.31-3.07,3.53-5.69,4.49-8.91,.63-2.08,.94-4.25,1.73-6.3,.68-1.74,1.6-3.37,2.22-5.13,3.14-8.84,4.45-16.68,6.65-20.47,3.97-6.85,8.38-13.05,13.69-18.89,10.74-11.84,22.03,5.65,26.46,17.53,1.63,4.36,3.81,8.25,5.71,12.47,1.08,2.4,7.25,19.61,8.28,23.48,1.96,7.39,5.47,14.36,7.59,21.74,11.11,38.89,2.82,14.49,12.99,41.13,2.95,7.74,5.95,15.55,8.15,23.53,1.09,3.98,2.63,7.81,3.82,11.75,.99,3.26,6.25,22.02,8.66,28.02,5.1,12.71,6.32,26.08,7.21,39.67Z"/>
          <path class="cls-4" d="M511.49,392.31c.44,7.4,.12,35.09-.71,42.5-1.72,15.26-1.04,31.27-.69,34.06,.84,6.71,.74,6.85-1.59,7.05-2.96,.26-5.94,.34-8.9,.44-3.73,.11-8,.82-11.73,.17-1.12-.19-2.14-.59-3.3-.65-1.86-.09-3.99,.86-4.84-1.2-1.08-2.61-.42-6.59-.18-9.29,.27-2.96,.05-5.89-.11-8.84-.05-.92-.07-1.84-.07-2.75,0-5.5,.77-10.93,.85-16.44,.09-6.46-.78-12.87-.85-19.34-.42-36.76-.61-37.37,15.41-40.76,6.2-1.3,15.15-6.66,16.64,14.14,.03,.29,.05,.6,.07,.91Z"/>
        </g>
        <path class="cls-2" d="M450.84,391.08c1.33,17.64-.62,26.22-.16,35.42,.56,10.71,.5,18.65,.2,25.58-.63,14.89-2.37,25.13-1.61,48.19,.12,4,.57,8.02,.52,12.01v.1c-.05,2.86-.53,5.67-.58,8.52-.05,2.49-.65,4.8-.8,7.24-.2,3.05,.22,6.16,.34,9.2,.16,3.84-.48,7.31-.8,11.12-2.39,28.04,4.1,43.59-8.45,61.4-3.08,4.36-8.75,5.91-13.82,6.3-13.92,1.08-11.93,1.51-15.28,1.89-5.55,.63-11.19,.12-16.71,.85-1.59,.22-5.56,1.35-7.07,.4-2.97-1.85-1.13-20.95-2.15-34.58-.08-1.05-.06-2.9,.02-5.38,.66-20.64,5.42-84.83-8.7-93.18-3.04-1.8-6.14-2.44-9.65-2.35-3.12,.08-5.28-.46-8.28-1.09-3.46-.74-7.01-.96-10.49-1.65l-18.1,.5c-1.91,.42-7.6,1.09-13.02,5.33-6.8,5.31-11.41,5.33-9.37,37.24,.43,6.72,.32,13.45,.11,20.19-.19,6.71-.46,13.42-.35,20.1,.18,10.63,1.81,52.02-.68,54.1-1.53,1.27-5.95-.02-7.65-.19-3.17-.33-6.37-.23-9.55-.28-2.96-.06-5.82-.49-8.76-.66-3.26-.19-6.5-.17-9.74-.66-7.27-1.1-11.35,1.06-12.46-25.28-.27-6.37-.5-12.98-1.6-19.27-1.08-6.04-1.29-12.09-1.98-18.17-.31-2.73-.8-5.45-1.05-8.2-.08-.91-.14-1.82-.14-2.74-.12-16.42,.03-1.55-2.01-28.3-.26-3.55-1.11-6.95-1.29-10.48-.74-13.53,1.36-11.33-.73-23.31-.5-2.84-.45-5.76-.58-8.63-1.55-35.73-3.17-32.67-3.49-68.78-.02-2.97,.5-5.86,.58-8.8,.12-4.75-1.19-9.55-.45-14.33,.39-2.52,2.64-4.26,5.11-7.52,3.92-5.2,10.04-16.35,10.59-17.44,1.48-2.9,3.19-5.61,4.83-8.41,1.53-2.65,2.57-5.53,4.09-8.19,.05-.07,.2-.36,.48-.83,1.86-3.23,8.45-14.64,8.77-15.25,2.5-4.93,4.6-10.3,7.47-15.05,5.64-9.34,4.19-12.3,10.94-21.99,1.85-2.64,5.91-13.08,8.02-16.17,2.82-4.15,5.63-8.2,7.92-12.7,5.06-9.97,2.56-4.02,6.72-11.51,13.88-25,7.75-12.96,13.69-25.55,1.42-3,3.53-5.68,5.27-8.51,1.28-2.08,4.01-10.98,6.83-6.82,1.61,2.37,2.71,5.45,4.1,8,4.45,8.15,2.19,6.05,7.77,16.26,1.59,2.9,2.74,5.99,4.01,9.03,1.7,4.05,3.84,7.58,5.96,11.39,12.77,23.06,5.27,12.81,17.49,35.29,.82,1.5,1.72,3.14,2.72,4.95,2.72,4.91,4.76,10.14,7.59,15.01,10.08,17.38,16.26,36.7,28.29,52.98,3.67,4.97,6.41,10.55,10.54,15.17,2.84,3.18,7.68,8.28,11.83,9.85,1.12,.42,2.51,.48,3.42,1.34,1.67,1.56,1.2,5.3,1.35,7.32Zm-31.09,36.94c.16-3.24,.83-6.41,.73-9.71-.07-1.9-1.2-38.68-3.04-49.85-.26-1.56-.88-2.86-1.29-4.36-.68-2.57,.7-2.41-3.19-5.21-3.7-2.67-8.12-2.74-12.5-3.26-2.59-.31-4.96-.84-7.57-.44-2.72,.41-5.55,.91-8.13,1.88-19.52,7.38-24.49-.75-22.47,56.05,.11,3.37,.2,6.75,.56,10.11,.6,5.94-.08,10.65,.68,15.94,.5,3.46,1.61,7.16,4.09,11.61,5.14,9.19,20.28,6.15,27.81,5.88,5.73-.2,11.58-.6,17.24-1.42,6.82-.99,5.34-8.74,7.06-17.51,.59-2.97-.01-5.46-.01-8.42,0-.43,.01-.86,.03-1.29Zm-99.01,10.53c.22-5.93,.07-11.87,.03-17.8-.26-39.74-1.29-31.82-1.89-46.15-.15-3.33-.43-6.12-2.49-8.88-2.65-3.56-7.95-5.67-12.38-4.92-2.63,.45-4.96,1.27-7.65,1.52-2.11,.19-4.16,.76-6.26,.97-2.66,.28-5.36,.19-8.02,.5-1.45,.17-2.76,.73-4.19,1-16.3,3.09-12.98,11.86-14.26,29.53-.2,2.73-.29,6.54-.32,10.75-.09,12.17,.37,27.74,.49,30.75,.14,3.44,.68,6.83,.79,10.25,.09,2.45,.33,4.45,1.44,6.62,2.92,5.71,9.5,5.76,15.28,6.24,6.02,.5,12.12,.45,18.08,1.57,4.59,.87,11.01,.32,15.15-1.86,3.95-2.07,5.86-6.67,5.29-11.01-.15-1.1-.08-2.18,.06-3.25,.26-1.94,.78-3.85,.86-5.84Z"/>
        <g>
          <path class="cls-1" d="M541.56,247.88c.25,3.6,.32,5.27-3.72,5.69-1.05,.11-3.59,.79-4.59,.08-1.08-.78-.83-3.35-.88-4.45-.18-3.1-.24-4.45,3.08-4.79,1.17-.12,4.11-.86,5.19-.18,1.01,.65,.84,2.61,.92,3.66Z"/>
          <path class="cls-1" d="M541.31,261.3c.12,2.93,.25,6.19-2.95,7.1-1.22,.35-3.29,1.21-4.24,.17-.86-.94-.97-3.61-1.16-4.82-.5-3.21-1.11-5.43,2.68-5.63,2.61-.14,5.53,.1,5.65,3.17Z"/>
          <path class="cls-1" d="M539.64,231.01c1.96,1.59,2.42,7.57-.24,8.68-1.45,.6-6.02,1.65-7.09-.12-.52-.88-.17-2.72-.12-3.64,.06-1.1-.12-3.16,.62-4.1,1.18-1.47,5.42-1.97,6.83-.82Z"/>
          <path class="cls-1" d="M529.37,263.54c.17,1.52,.92,3.99,.27,5.47-.63,1.48-2.72,1.8-4.1,2.18-1.37,.37-4.87,1.67-6.25,.57-1.06-.84-.79-3.33-.87-4.46-.15-2.07-.69-4.46-.44-6.53,.18-1.53,.97-1.78,2.41-2.01,9.15-1.38,8.58,1.11,8.98,4.78Z"/>
          <path class="cls-1" d="M527.94,233.12c.9,.97,.52,3.95,.46,5.16-.16,2.89-2.01,2.76-4.54,2.76s-6.31,1.27-6.5-2.41c-.16-3.08,2.32-5.69,5.35-5.46,1.09,.08,1.8,.05,2.87-.18,.82-.17,1.68-.63,2.37,.14Z"/>
          <path class="cls-1" d="M528.13,245.9c1.28,1.76,2.06,8.25-.84,8.69-2.15,.33-4.44,.32-6.62,.34-1,.01-2.32,.19-2.95-.74-.7-1.03-.29-3.41-.24-4.53,.25-4.58,.57-5.19,7.77-4.91,1.13,.05,2.16,.17,2.87,1.14Z"/>
          <path class="cls-1" d="M484.08,251.78c.18,1.28-.02,2.83-.06,3.72-.1,4.07-3.7,4.08-7.16,4.49-1.03,.11-3.19,.73-4.16,0-.96-.73-.69-2.62-.69-3.65,0-.84-.1-2.04-.1-3.22-.01-1.3,.11-2.58,.65-3.38,1.21-1.8,4.25-.7,5.95-.46,1.34,.18,3.93-.12,4.96,.96,.34,.36,.52,.92,.61,1.54Z"/>
          <path class="cls-1" d="M483.27,263.63c.61,1.28-.12,4-.25,5.3-.12,1.23-.05,3.1-1.01,4.07-.7,.7-1.46,.62-2.42,.61-1.6-.03-5.06,.35-6.28-.82-1.01-.96-.93-4.62-.78-5.96,.16-1.43,.68-2.06,2.02-2.58,1.56-.61,7.73-2.72,8.72-.62Z"/>
          <path class="cls-1" d="M482.51,241.27c.22,1.44,.06,2.72-.75,3.31-1.54,1.12-6.13,.41-8.09,.31-1.2-.06-1.52-.01-1.71-1.39-.03-.25-.03-.51-.01-.77,.06-.79,.31-1.61,.29-2.4-.02-1.9-1.68-6.08,1.39-6.5,.86-.12,1.77,.41,2.58,.59,.89,.19,2.01,.05,2.83,.4,1.34,.56,3.05,3.8,3.46,6.47Z"/>
          <path class="cls-1" d="M465.45,265.3c3-.28,3.87,.48,3.82,3.51-.06,2.66,.25,5.8-3.05,5.8-1.48,0-3.92,.85-5.09-.31-.8-.79-.6-1.96-.57-3,.17-5.2-.62-5.51,4.88-6.01Z"/>
          <path class="cls-1" d="M468.83,242.72c0,.78-.09,1.52-.35,2.11-.67,1.54-3.05,1.6-4.51,1.89-1.31,.26-2.36,.61-3.1,.61-.92,0-1.37-.54-1.3-2.46,.08-2.41-.19-6.71,1.96-8.26,1.17-.85,3.77-2.08,5.28-1.6,1.39,.44,1.42,2.15,1.56,3.4,.14,1.14,.46,2.81,.46,4.31Z"/>
          <path class="cls-1" d="M468.52,253.16c0,.57-.03,1.1-.02,1.43,.17,6.38-.31,6.42-2.87,6.87-4.69,.82-5.88-.18-6.06-1.76-.15-1.16,.26-2.62,.22-3.91-.05-1.13-1.05-4.23-.23-5.13,.27-.29,.77-.41,1.33-.42,.8-.03,1.73,.1,2.23,.11,1.03,.01,4.15-.4,4.96,.54,.37,.44,.44,1.39,.44,2.27Z"/>
          <path class="cls-1" d="M407.52,412.92c1.2,26.77-1.93,29.18-6.57,29.61-1.74,.17-6.65,1.53-7.96-.31-1.57-2.18-.18-19.6-.02-26.9,.05-2.52-.75-5.68,2.03-6.71,2.89-1.09,7.41-1.38,10.41-.88,2.46,.41,2.03,3.17,2.12,5.19Z"/>
          <path class="cls-1" d="M406.29,388.87c1.27,14.12,1.98,13.82-1.65,14.07-10.25,.68-11.16,2.65-11.28-1.2-.18-5.67,.33-11.4,.58-17.05,.09-2.3-.82-14.75,4.17-13.28,6.8,2.02,7.66,11.64,8.19,17.46Z"/>
          <path class="cls-1" d="M386.53,370.85c4.02-.11,4.2,3.09,3.92,6.25-.32,3.59,.11,7.12,.02,10.71-.09,3.23-.46,6.42-.48,9.67,0,1.62,.53,4.7-.44,6.18-1.18,1.8-7.66,.19-9.61,.14-2.12-.07-4.2,.46-4.45-2.12-.58-5.99,.79-12.74,1.42-18.7,.57-5.56,2.91-11.94,9.62-12.12Z"/>
          <path class="cls-1" d="M388.81,438.34c-.03,2.89,.62,5.21-2.75,5.7-3.3,.48-7.55,1.22-9.18-2.33-1.56-3.41-1.09-7.97-1.63-11.65-.23-1.55-.59-3.07-.29-4.63,.83-4.43,0-2.02,.14-10.89,.05-2.73-1.01-6.52,7.66-6.41,9.23,.11,6.43-1.11,6.06,30.22Z"/>
          <path class="cls-1" d="M358.65,521.05c.1,1.82,.43,4.72-.25,6.39-1.25,3.07-8.28,11.91-15.8,7.17-6.12-3.85-5.93-6.28-6.58-11.06-.19-1.38-.16-2.52,.45-3.78,3.7-7.84,9.1-7.59,13.31-8.43,1.63-.33,2.83-.14,4.12,.95,2.54,2.13,4.55,5.44,4.75,8.76Z"/>
          <path class="cls-1" d="M308.19,385.9c.15,1.93,1.61,15.32,.49,19.76-.84,3.33-7.28,1.87-9.9,2.06-1.74,.12-5.39,1.17-7,.28-1.46-.82-1.01-2.9-.99-4.31,.02-1.93,.57-25.87,1.05-28.07,.52-2.37,2.12-2.59,4.34-2.86,3.61-.42,6.32-.97,8.6,2.21,2.47,3.47,3.09,6.73,3.41,10.91Z"/>
          <path class="cls-1" d="M308.35,413.23c.29,.59,.16,9.37,.15,10.04-.08,3.58-.58,7.05-.95,10.61-.41,3.77-.14,8.1-1.29,11.74-1.08,3.39-5.88,2.61-8.85,3.09-1.56,.26-4.47,1.56-5.47-.33-.59-1.1-.26-2.87-.27-4.07-.33-29.22-2.27-30.4,.49-31.53,3.06-1.25,7.73-.74,10.95-.66,1.45,.05,4.47-.4,5.25,1.11Z"/>
          <path class="cls-1" d="M287.61,377.2c.57,1.2-.08,22.41-.12,23.73-.08,1.65,.43,5.91-1.03,6.95-2.63,1.84-7.16-.53-9.81-1.01-1.73-.32-1.77-.25-1.95-1.93-.37-3.27-.34-13.22-.08-19.23,.23-5.06,.19-8.65,5.86-9.29,1.7-.19,6.21-1.22,7.14,.78Z"/>
          <path class="cls-1" d="M287.26,422.1c1.51,30.15,1.69,27.93-3.83,27.17-8.68-1.19-7.7-.39-8.28-20.92-.03-1.26-1.27-15.55-.35-16.41,.53-.5,3.39,.08,4.1,.12,1.82,.11,5.94-.36,7.57,.73,2.06,1.37,.69,7.23,.79,9.3Z"/>
        </g>
        <g>
          <path class="cls-6" d="M416.09,406.14c.15,2.52,1.11,10.88,.75,21.77-.15,4.72-.56,9.94-1.38,15.35-.31,1.95-.5,5.61-1.99,7.1-1.18,1.18-4.49,1.08-6.08,1.38-4.7,.9-9.55,.22-14.29,.82-5,.63-10.93,.94-15.93,.18-4.04-.6-7.06-4.19-8.12-7.93-1.56-5.51-2.14-4.35-2.41-6.08-.23-1.44-.24-4.86-.43-15.69-.18-9.94-1.03-19.82-.94-29.75,.03-4.79,.52-9.56,.65-14.34,.37-14.14,10.62-15.05,17.15-16.63,1.76-.43,3.27-.02,5-.15,1.25-.08,1.25-.31,2.18-1.37,1.11-1.28,1.12-1.46,2.82-1.42,1.89,.05,3.74,.22,5.61,.58,4.15,.8,11.03-.39,13.61,3.95,2.01,3.38,1.38,8.48,2.04,12.21,1.17,6.7,1.68,28.11,1.79,30.03Zm-25.25,41.4c15.21-1.67,22.19,3.81,20.32-37.48-.36-7.95,.36-16.26-1.08-24.12-.58-3.18-.49-6.61-2.12-9.44-1.72-2.97-.75-5.99-7.51-8.55-4.34-1.63-8.35-1.14-12.86-.97-13.86,.52-15.68,8.58-15.94,48.65-.06,10.19-2.05,31.24,7.17,32.96,4,.76,8.07-.61,12.01-1.04Z"/>
          <path class="cls-6" d="M501.91,157.31c3.4-.51,12.81-3.1,12.2,3.05-.16,1.55-.52,3.07-1.02,4.54-.5,1.47-1.11,2.91-1.79,4.31-1.56,3.23-3.75,4.7-6.92,6.35-2.27,1.17-5.79,2.05-6.5-1.14-.25-1.12-.43-2.14-.54-3.07-.44-3.42-.11-5.72,.22-7.34,.17-.83,.34-1.48,.41-2.03,.15-1.05-.01-3.03,.79-3.84,.68-.7,2.29-.69,3.16-.82Z"/>
          <path class="cls-6" d="M505.08,141.35c5.62,2.36,7.76,9.05,6.3,10.51-.96,.96-4.87,.75-6.13,.95-2.47,.4-6.22,1.86-6.64-1.6-.26-2.21-.06-4.59,.01-6.81,.03-1.07-.12-2.71,.5-3.67,1.33-2.02,4.36-.07,5.96,.61Z"/>
          <path class="cls-6" d="M494.69,150.09c-.01,1.55,.39,3.29-1.33,3.94-2.14,.82-5.22,.5-7.47,.53-1.38,.02-3.52,.24-4.78-.59-1.33-.88-.5-2.12,.26-3.41,1.19-2.02,2.82-4.09,4.53-5.78,3.78-3.76,7.94-5.68,8.54-.94,.26,2.05,.25,4.18,.24,6.24Z"/>
          <path class="cls-6" d="M493.91,158.64c.94,1.12,.79,3.12,.46,5-.24,1.36-.58,2.66-.68,3.55-.15,1.2,.19,2.93,.35,4.57,.15,1.48,.12,2.88-.54,3.73-2.1,2.65-5.36-1.09-7.01-2.27-2.13-1.52-3.9-3.37-5.47-5.46-1.64-2.2-2.66-3.9-3.19-5.21-2.39-5.9,5.02-4.01,9.62-4.12,1.53-.03,5.43-1.02,6.47,.23Z"/>
          <path class="cls-6" d="M315.43,382.5c1.02,10.16,2.57,22.65,1.71,57.42-.03,1.41-.2,2.72-.39,4.06-.11,.79-.23,1.61-.33,2.44-.51,4.42,.93,13.14-21.51,8.99-1.63-.29-2.87-.83-.91-1.93,3.44-1.93,10.33-.02,12.88-1.7,1.52-1,2.57-3.56,3.15-5.2,.84-2.37,.67-5.09,.87-7.55,.1-1.26,.37-2.59,.29-3.85-.07-1.05-.45-1.98-.36-3.05,.1-1.28,.75-2.56,.93-3.86,.25-1.7,1.62-32.82,.34-45.63l3.32-.14Z"/>
          <path class="cls-6" d="M315.43,382.5l-3.32,.14c-.16-1.56-.35-2.84-.59-3.77-1.04-4.02-4.26-9.22-8.54-10.31-2.59-.66-5.36,.2-7.96,.28-.82,.02-2.68,.03-3.06-.46-.17-.23-.05-.54,.6-1.02,1.89-1.38,5.72-.82,7.96-1.25,15.76-3.03,14.14,5.8,14.27,8.41,.14,2.75,.37,5.28,.63,7.99Z"/>
          <path class="cls-6" d="M289.17,368.46s.05,.08,.05,.11c-.02-.17-4.59,1.82-4.91,2.01-1.97,1.16-3.85,1.38-5.95,2.15-4.78,1.78-6.62,3.97-7.3,8.88l-3.15-.22c.26-2.42,.16-4.92,1.03-7.24,1.82-4.83,8.24-4.52,12.34-6.16,1.51-.61,2.08-1.04,3.7-.67,.53,.12,3.73,.56,4.18,1.13Z"/>
          <path class="cls-6" d="M281.55,453.41c-.1,0,4.36,.29,3.47,1.11-.93,.86-2.78,.09-3.8-.14-1.9-.41-9.12-.11-11.65-4.15-1.93-3.07-1.37-7.29-1.82-10.76-.88-6.65-.59-13.6-.78-20.28-.15-4.62-.59-9.42-.5-14.12,.03-1.31,.1-2.62,.23-3.91,.73-7.27,.18-13.15,1.08-18.73,.06-.34,.1-.69,.14-1.03l3.15,.22c-.57,4.06-.33,9.98-.33,19.08,0,7.55-.59,15.31,.24,22.82,.28,2.64,.42,4.8,.14,7.42-.4,3.75,.48,7.78,.82,11.52,.35,3.86,.17,6.85,3.83,9.02,1.73,1.04,3.76,1.79,5.8,1.93Z"/>
        </g>
      </g>
      <path d="M135.28,123.43c-5.8-11.25-7.01-19.94-12.39-29.66-.49-.9-3.76-8.63-5.21-8.21-1.62,.48-.74,10.36-.73,11.5,.12,11.52,.43,38.65,1.68,50.91,1.21,11.87-.03,23.9,1.21,35.77,1.5,14.21,.1,10.84,.14,16.91,.07,12.19,1.97,25.41,1.39,29.54-.41,2.91,.4,3.56,.68,6.51,.88,8.93,.27,74.46,1.76,92.56,.87,10.56-1.95,25.53,1.88,26.41,2.25,.51,6.05-.71,8.29-.92,2.89-.26,6.14-.06,9-.66,3.51-.74,6.7-3.37,9.97-4.78,2.48-1.08,5.98-1.44,7.9-3.38,1.81-1.85,2.3-3.91,1.37-6.19-1.95-4.82-4.18-9.69-6.47-14.37-4.54-9.31-4.43-13.27-10.13-21.58-2.12-3.09-3.5-6.33-4.81-9.82-4.43-11.69-15.63-24.07-1.6-22.34,1.08,.14,3.05,1,4.01,.23,1.79-1.43-1.72-5.1-2.5-6.36-3.46-5.53-5.03-10.16-6.56-12.88-.53-.96-1.47-1.94-1.46-3.1,.05-2.75,3.85-3.41,5.94-3.76,3.32-.56,12.14,2.41,10.65-3.34-1.59-6.13-5.45-11.53-7.51-17.51-4.43-12.81-14.81-19.89-12.47-23.65,.75-1.2,3.05-1.51,4.26-1.85,9.97-2.78,10.99-1.52,14.68-2.35,5.47-1.24,.39-8.09-.78-11.12-1.2-3.07-1.88-6.31-3.24-9.31-1.37-3.05-3.33-5.78-4.68-8.85-3.15-7.17-.36-4.38-11.95-26.84-1.1-2.14-2.91-5.46-2.73-7.95,.46-6.92,11.77,3.29,13.66-2.01,.7-1.96-2.4-5.93-3.23-7.55Zm-48.61,75.38c9.84-29.67,9.64-31.65,11.96-36.52,1.42-2.98,1.47-6.62,2.39-9.8,.68-2.35,1.47-4.65,2.28-6.95,.56-1.57,1.74-3.71,1.65-5.43-.18-3.91-4.46-1.31-6.72-.84-2.56,.54-7.35,1.72-9.52-.37-2.82-2.73-.42-8.8,.92-11.73,1.74-3.81,2.98-7.81,4.72-11.63,1.74-3.82,3.48-7.42,4.31-11.56,1.65-8.16,5.8-15.42,7.57-23.57,.96-4.4,2.81-8.55,3.57-12.95,.27-1.64,.44-3.2,2.12-3.97,1.46-.68,3.44-.42,4.4,.88,1.01,1.37,1.25,4.2,1.94,5.8,3.17,7.27,2.47,8.91,7.95,20.3,3.85,8,6.23,16.5,9.71,24.6,1.48,3.44,3.83,6.37,5.29,9.83,.82,1.93,1.7,3.77,2.74,5.59,.76,1.34,1.87,2.75,1.45,4.37-1.42,5.4-14.48-.6-13.12,5.03,1.54,6.29,6.22,11.5,7.87,17.81,1.56,5.99,6.08,11.91,7.91,16.43,.86,2.13,1.08,4.41,1.76,6.61,1.57,5.17,9.32,15.42,5.79,19.08-4.36,4.52-18.65,.9-19.38,5.13-.46,2.65,3.78,6.93,5.14,8.85,2.01,2.86,3.47,6.21,4.5,9.54,1.95,6.31,10.25,19.57,9.58,23.57-.62,3.68-7.48,4.2-10.42,4.08-2.33-.1-5.14-.62-4.67,2.55,.54,3.59,3.43,7.58,5.06,10.84,1.02,2.04,2.02,4.08,3.16,6.06,.8,1.38,2.25,3.18,1.62,4.89-1.48,4.05-7.79,.91-10.6,1.77-3.69,1.12,.35,5.95,1.46,7.72,2.13,3.37,3.19,6.92,4.84,10.48,1.8,3.88,4.35,7.19,6.51,10.84,2.2,3.72,3.06,8.26,4.55,12.28,.75,2.05,1.95,3.78,3.07,5.65,2.27,3.78,4.45,12.57,8.5,18.75,.94,1.43,1.91,3.03,1.29,4.83-.84,2.41-3.3,2.48-5.36,2.99-1.93,.48-3.51,1.65-5.27,2.53-1.69,.85-3.44,1.03-5.22,1.58-3.51,1.08-6.29,3.82-9.66,4.92-4.69,1.51-16.65-1.05-19.11,2.52-1.18,1.71-.51,5.25-.5,7.14,.03,4.53,.16,9.08,.57,13.6,.39,4.31-.39,8.37-.2,12.67,.08,1.81-.31,9.42-4.03,5.45-.6-.65-.6-1.4-.68-2.25-.52-5.87,1.16-21.3-.76-34.34-.75-4.99-3.41-1.71-15.89-3.18-22.26-2.63-31.41-.11-33.36-6.12-1.06-3.31,3.39-11.87,5.37-16.35,3.44-7.75,5.65-16.26,8.25-24.33,1.36-4.19,3.16-8.14,4.66-12.26,1.94-5.3,1.54-8.01,5.25-16.94,.62-1.51,2.71-4.91,1.68-6.54-1.2-1.9-9.86,.82-12.12,1.08-11.26,1.35-4.07-6.62,4.47-33.77,2.41-7.68,4.64-15.42,7.13-23.08,.58-1.8,4.81-10.66,2.04-11.92-1.53-.69-5.56,1.58-7.02,2.06-1.34,.45-2.83,1.1-4.27,1.16-7.43,.31-.14-12.29,.92-15.48Zm25.8-112.9c-.05-1.01,.23-6.33-.93-5.93-1.51,.52-2.15,5.71-2.67,7.13-1.14,3.06-2.87,5.85-4.06,8.88-2.21,5.62-2.53,11.82-5.02,17.34-2.31,5.1-3.9,10.33-5.99,15.51-.57,1.41-2.05,3.59-1.11,5.13,3.05,5,17.76-7.8,17.38,2.21-.17,4.72-1.84,9.95-3.99,14.13-1.19,2.31-1.63,4.67-2.31,7.21-.83,3.07-4.89,13.89-5.6,16.08-1.08,3.33-1.45,6.81-2.21,10.21-.59,2.62-1.76,5-2.63,7.52-1.1,3.23-1.9,6.55-3.07,9.77-.52,1.46-2.96,5.71-1.44,7.08,1.33,1.21,7.08-1.76,8.89-2.02,1.27-.18,4.81-1.12,5.73,.33,.96,1.52-.54,5.14-.99,6.62-3.38,11.17-7.52,22-10.64,33.26-1.82,6.56-5.02,12.68-6.8,19.28-.41,1.47-2.71,6.15-1.96,7.59,.74,1.39,2.32,.84,3.72,.66,2.82-.37,5.73-.59,8.53-1.05,2.05-.34,6.59-2.92,7.95-.12,.97,1.99-1.81,5.71-2.65,7.39-4.81,9.65-18.39,54.6-24.55,67.77-.78,1.68-2.25,4.34-.32,5.87,2.15,1.7,7.62,.96,10.07,1.09,10.08,.52,18.91,1.39,27.53,1.14,1.09-.02,4.25,.34,5.12-.53,1.03-1.03,1.23-42.1,.32-58.43-1.34-23.98,.82-48.08-1.67-71.94-1.28-12.25-.49-24.39-.78-36.65-.07-2.81-.83-5.39-1.13-8.16-.6-5.36-.24-10.88-.29-16.26-.14-12.42-.92-24.86-1.5-37.27-.63-13.6-.44-27.22-.95-40.82Zm340.43,426.37h-3.09c.05-3.99-.4-8.01-.52-12.01-.76-23.06,.97-33.3,1.61-48.19l3.22,.15c-.29,5.33-.79,21.3-.84,23.09-.01,.71-.36,2.63,.19,3.29,.74,.87,3.24,.69,4.19,.74,2.92,.15,5.72,.08,8.56-.67,2.48-.63,8.13-.02,9.61-2.53,.58-.97,.69-12.76,.86-22.39l2.7,.05c0,.92,.02,1.84,.07,2.75,.16,2.95,.39,5.88,.11,8.84-.24,2.7-.9,6.69,.18,9.29,.85,2.06,2.98,1.11,4.84,1.2,1.16,.06,2.18,.45,3.3,.65,3.73,.65,8-.06,11.73-.17,2.97-.1,5.95-.18,8.9-.44,2.32-.19,2.42-.34,1.59-7.05-.35-2.79-1.03-18.8,.69-34.06,.84-7.41,1.16-35.1,.71-42.5-.02-.31-.03-.61-.07-.91l3.38-.25c.29,6.37,.19,16.04,.05,32.44-.02,2.71-1.94,20.54-1.91,27.33,.01,1.96,.43,3.94,.36,5.89-.26,6.52-.16,2.02,.84,12.79,.14,1.52-.03,5.31,1.36,6.49,1.03,.87,3.23,.32,4.46,.17,9.65-1.21,13.45-.82,24.23-1.67,1.45-.11,2.9-.33,4.35-.43,1.94-.12,4.85,.76,6.58-.23,1.79-1.01,1.77-3.83,1.89-5.53,.16-2.53,.68-5,.79-7.53,.49-10.21,.95-20.56,2.18-30.73,.48-3.92,.96-10.13,1.45-17.52l3.19,.2c-.05,.6-.07,1.19-.09,1.79-.18,5.08-.43,10.06-.89,15.11-.44,4.72-.05,9.6-.85,14.28-1.81,10.49-.39,23.43-2.55,29.6-1.45,4.1-3.21,4.71-7.25,4.89-10.67,.48-21.62,.17-32.22,1.69-2.48,.36-4.97,1.1-7.49,1.03-2.46-.06-4.77-1.11-7.23-1.12-4.61-.02-9.27,.78-13.9,.79-5.4,.01-10.84-1.07-16.21,.07-4.44,.93-8.9,1.86-13.41,2.47-7.28,1.01-8.34-1.1-9.35,1.18-.73,1.62-.66,9.83-.6,11.56,.23,7.47,.31,12.51,.31,16.1Zm-138.92,70.61c-.01-17.89,.61-40.93,.77-46.16,.59-18.37-.74-31.2,.35-35.14,2.29-8.31,5.13-6.65,11.1-6.38,8.16,.39,14.99-1.34,23.38-2.25l.34,3.37c-.82,.08-1.61,.23-2.4,.45-6.46,1.85-13.62,2.33-20.32,2.56-1.98,.07-5.82-.7-7.52,.61-2.81,2.15-.11,14.79-.89,27.84-1.23,20.58-1.82,65.33-1.68,70.06l-2.85,.14c-.18-3.94-.26-9.25-.27-15.09ZM45.67,197.6c.94-3.38,1.09-11.38-.9-13.76-1.14-1.37-3.24-.88-4.83-.63-6.88,1.04-3.6,11.8-3.35,14.32,.1,1.05-.14,2.58,.52,3.48,1.1,1.51,2.73,.39,4.24-.11,2.06-.68,3.73-1.16,4.32-3.3Zm-26.62-62.99c.85-2.55,2.52-5.77,2.63-8.51,.28-6.28-12.34,3.69-13.35-3.47-.35-2.52,2.46-5.18,3.46-7.33,.2-.45,6.38-15,6.84-16.36,.52-1.52,3.17-6.41,2.38-7.78-1.54-2.66-8.62,3.81-9.87-1.45-.49-2.02,1.38-5.12,2.06-6.87,5.42-13.82,.27-4.21,8.47-21.56,.84-1.77,6.23-11.1,4.12-12.83-2.12-1.72-13.01,3.88-12.21-2.72,.19-1.6,1.78-3.42,2.39-4.97,1.71-4.33,4-12.96,4.7-15.39,.94-3.23,2.49-6.3,3.31-9.55,.65-2.54,3.97-11.93,7.51-6.64,4.85,7.24,2.11,10.3,21.92,33.28,1.18,1.37,2.89,2.92,2.01,4.87-1,2.23-4.37,.74-4.77,3.29-.24,1.59,2.59,4.49,3.4,5.81,2.01,3.33,3.44,6.86,5.2,10.31,2.49,4.91,5.52,9.52,7.94,14.47,1.19,2.44,3.73,4.5,4.69,6.91,2.33,5.79-9.39,4.63-12.48,4.8-1.38,.08-5.87-.41-6.57,1.2-.94,2.15,6.65,10.78,8.33,13.44,1.23,1.95,2.16,4.08,3.41,6.03,5.94,9.34,13.72,13.98,9.86,16.94-1.53,1.17-6.98,.58-11.33,.42-1.73-.06-4.93-1.03-5.37,.93-.44,1.96,2.29,5,3.25,6.39,5.26,7.56,7,11.44,9.66,15.4,1.51,2.24,3.5,4.08,4.93,6.37,1.5,2.38,2.53,5.01,3.87,7.48,1.08,1.98,4.34,5.04,4.34,7.33,0,5.84-10.45,3.3-13.3,2.96-2.57-.31-4.5,.1-6.81,1.19-2.71,1.26-5.26,.97-8.16,1.47-8.49,1.43-4.37,6.13-4.54,10.45-.11,3.1-1.04,6.02-1.02,9.19,.01,1.61,.43,3.89-1.11,4.93-1.67,1.12-5.13,.45-7.09,.99-2.34,.62-5.64,2.32-7.92,.52-4.68-3.67,.6-19.82-4.79-22.48-5.73-2.83-24.36,3.63-28.38-1.22-1.68-2.03,.28-5,1.16-6.96,11.12-25.26,12.38-26.8,17.23-41.27Zm-.26,43.57c6.94-1.5,23.33,1.61,42.53-4.68,3.68-1.2,7.58-.51,11.37-.79,7.45-.56-2.62-11.1-4.42-13.63-3.83-5.4-6.81-11.61-10.37-17.22-5.22-8.25-14.72-18.36-2.3-17.04,2.07,.23,10.91,3.33,9.96-.71-.85-3.63-4.87-6.89-6.63-10.25-6.77-12.96-13.38-16.57-14.05-22.5-.67-5.93,9.89-1.86,16.83-4.05,3.02-.95,1.27-3.66,.14-5.82-.86-1.64-12.07-22.51-13.45-24.72-1.61-2.57-6.48-7.86-4.74-11.07,.78-1.44,2.45-1.72,2.11-3.58-.36-1.95-2.89-4.45-4.04-5.95-3.12-4.07-5.77-7.94-8.09-12.52-.87-1.73-3.61-8.45-5.82-5.6-2.45,3.17-5.08,14.98-6.49,18.97-.52,1.47-2.04,4.03-1,5.59,2.15,3.2,12.52-4.91,11.18,3.29-2.31,14.12-8.01,17.69-11.28,28.1-.69,2.19-1.09,4.45-1.73,6.66-.43,1.51-2.11,4.28,.12,4.68,1.94,.34,10.98-7.65,11.44-2.2,.14,1.61-2.02,4.03-2.75,5.37-5.05,9.29-5.83,14.22-7.95,19.1-.91,2.1-6.8,11.22-2.93,11.82,1.96,.31,4.83-1.39,6.48-2.27,1.36-.7,3.52-2.62,5.21-2.06,1.82,.59,1.82,2.4,1.21,3.81-5.02,11.53-3.01,11.22-13.57,34.67-2.33,5.19-4.6,10.44-6.64,15.75-2.87,7.44-5.71,12.17,9.66,8.87ZM366.63,438.72c.27,1.73,.85,.58,2.41,6.08,1.06,3.74,4.08,7.33,8.12,7.93,5,.76,10.93,.45,15.93-.18,4.74-.6,9.58,.08,14.29-.82,1.6-.31,4.91-.2,6.08-1.38,1.5-1.5,1.69-5.16,1.99-7.1,.83-5.42,1.23-10.63,1.38-15.35l2.91,.11c-.02,.43-.03,.86-.03,1.29,0,2.96,.6,5.45,.01,8.42-1.72,8.77-.24,16.52-7.06,17.51-5.66,.82-11.51,1.21-17.24,1.42-7.53,.27-22.67,3.31-27.81-5.88-2.48-4.45-3.59-8.16-4.09-11.61l3.1-.43Zm51.51-216.05c-2.74,10.78,.77,14.7,3.36,19.64,1.96,3.76,3.72,7.65,5.85,11.33,4.64,8.02,5.89,5.06,10.28-3.24,14.19-26.85,11.09-25.66,14.21-34.27,.79-2.22,1.94-4.31,2.66-6.56,.93-2.9,1.56-9.49,2.47-11.85,.48-1.25,1.18-2.37,1.61-3.64,.11-.34,.23-.68,.32-1.02l2.82,.88c-.6,1.97-1.34,4.48-2.55,10-1.2,5.51-3.56,10.65-4.93,16.11-4.35,17.29-16.6,37.74-17.89,39.67-.62,.92-1.77,1.87-2.11,2.91-.8,2.44,3.33,8.52,5.03,11.52,1.85,3.24,2.97,6.8,4.91,9.99,2.58,4.25,5.46,8.24,7.75,12.64,10.31,19.96,23.85,42.35,28.28,53.43,1.68,4.19,.05,9.11-1.05,13.32-.07,.27-.14,.53-.2,.8l-3.32-.57c.23-.52,.41-1.05,.43-1.61,.05-.88-.54-1.55-.66-2.36-.28-1.97,.97-3.86,.94-5.94-.14-7.66-9.82-21.9-27.74-55.56-1.91-3.6-4.34-6.82-6.36-10.36-4.83-8.48-8.89-17.38-13.98-25.71-6.8-11.15-9.95-18.7-14.64-27.2-1.63-2.96-2.5-6.46-4.06-9.52-.23-.43-.44-.86-.68-1.28l2.81-1.48c.39,.69,.82,1.28,1.31,1.63,.87,.62,.83,.43,1.33-.48,.36-.66,.95-2.52,1.7-5.31l2.96,.8c-.28,1.09-.58,2.16-.85,3.25Zm-42.43,310.37c-.01,1.77,.01,3.43,.06,4.99,.34,10.74,.01,21.74-.68,32.47-.46,7.06-.27,14.16-.44,21.23-.08,3.42-.44,6.88-.52,10.31l-3.18-.09c.06-2.24,.15-4.49,.19-6.72,.12-7.53-.11-15.11,.26-22.65,.22-4.07,1.12-22.16,1.31-39.55h3Zm-122.75-241.69c-2.1,4.34-3.61,8.97-6.02,13.17-11.02,19.31-12.14,28.42-14.55,34.81-3.76,10.02-5.66,14.31-6.76,18.99-.36,1.5-.4,2.98-.94,4.43-.7,1.86-1.98,3.54-2.59,5.4-.5,1.58-.24,3.46-.18,5.08,.1,2.7-.09,6.24,2.53,7.86,3.3,2.05,8.98,2.65,12.43,.77,3.61-1.96,6.64-6.23,9.07-9.44,5.15-6.78,13.65-21.61,21.49-35.99l2.71,1.62c-.27,.46-.43,.76-.48,.83-1.52,2.66-2.56,5.54-4.09,8.19-1.63,2.8-3.34,5.51-4.83,8.41-.56,1.09-6.67,12.24-10.59,17.44-2.47,3.26-4.72,5.01-5.11,7.52-.74,4.78,.58,9.59,.45,14.33-.08,2.95-.6,5.84-.58,8.8,.32,36.11,1.94,33.05,3.49,68.78,.12,2.88,.08,5.79,.58,8.63,2.08,11.98-.01,9.78,.73,23.31,.18,3.54,1.03,6.93,1.29,10.48,2.04,26.75,1.88,11.89,2.01,28.3,0,.92,.06,1.84,.14,2.74l-3.31,.31h-.01c-.75-8.58-1.18-17.18-1.9-25.77-.94-11.18-2.2-7.34-1.85-25.99,.18-9.09-1.53-18.07-1.64-27.16-.15-10.39-1.37-20.64-2.08-31-.35-5.2-.53-10.4-.95-15.6-.19-2.29,.02-4.36,.16-6.63,.15-2.67-.24-5.36-.28-8.02-.09-5.05-.01-10.05-.18-15.1-.03-1.3,.56-4.86-.49-5.91-1.01-1.02-2.65,.6-3.6,1.08-4.67,2.37-10.28,1.05-14.63-1.45-3.63-2.07-3.87-6.06-4.29-9.87-.89-8.21,.83-5.48,3.53-14.67,1.53-5.21,3.25-10.28,5.14-15.39,3.01-8.18,5.02-17.12,9.05-24.86,.1-.19,16.08-33.96,24.19-51.59,4.21-9.16,18.23-33.4,24.06-45.49,30.16-62.37,25.98-45.79,40.78-78.11l3.07,1.01c-.16,.33-.33,.67-.5,1.02-13.8,28.22-7.64,15.9-12.61,24.2-20.83,34.75-25.27,48.59-27.93,53.77-11.09,21.7-26.91,47.43-30.98,60.4-.74,2.35-1.89,4.19-2.95,6.36Zm223.9,153.77c.67-17.01-3.19-34.18-.12-57.3,.67-5.05,3.48-9.18,7.94-11.78,2.11-1.24,4.35-1.62,6.71-2.06,6.82-1.25,15.33-5.52,19.83,2.62,2.23,4.03,3.21,6.92,3.58,14.58l-3.38,.25c-1.5-20.8-10.45-15.44-16.64-14.14-16.02,3.39-15.83,4-15.41,40.76,.07,6.47,.94,12.88,.85,19.34-.08,5.51-.85,10.95-.85,16.44l-2.7-.05c.05-3.32,.1-6.37,.19-8.66Zm-113.34-5.95c-.76-5.29-.08-10-.68-15.94-.35-3.35-.44-6.74-.56-10.11-2.03-56.8,2.95-48.68,22.47-56.05,2.58-.97,5.42-1.47,8.13-1.88,2.61-.4,4.97,.14,7.57,.44,4.37,.52,8.79,.59,12.5,3.26,3.9,2.8,2.52,2.64,3.19,5.21,.41,1.51,1.03,2.8,1.29,4.36,1.84,11.17,2.97,47.95,3.04,49.85,.1,3.3-.57,6.47-.73,9.71l-2.91-.11c.36-10.89-.6-19.25-.75-21.77-.11-1.91-.62-23.33-1.79-30.03-.66-3.74-.03-8.84-2.04-12.21-2.57-4.34-9.46-3.15-13.61-3.95-1.87-.36-3.72-.53-5.61-.58-1.7-.05-1.71,.14-2.82,1.42-.93,1.07-.93,1.29-2.18,1.37-1.72,.12-3.24-.28-5,.15-6.54,1.59-16.78,2.49-17.15,16.63-.12,4.78-.61,9.55-.65,14.34-.09,9.94,.76,19.82,.94,29.75,.19,10.83,.2,14.25,.43,15.69l-3.1,.43ZM601.32,40.87c.18,1.33,.91,3.58,.05,4.8-.83,1.17-3.07,1.34-4.32,1.64-2.49,.6-4.84,1.52-7.28,2.25-3.3,.99-10.08,.87-12.01,4.19-2.37,4.08-2.1,9.12-2.85,13.61-.77,4.51-1.11,6.03-1.22,6.95l-2.73-.32c.32-2.78,.71-4.82,.94-7.52,1.14-13.32,1.57-15.84,4.1-17.35,4.79-2.86,15.87-3.26,20.05-6.08,1.68-1.12,1.52-2.13,1.28-4-.44-3.38-1.13-6.62-2.16-9.86-1.1-3.47-1.2-7.3-2.54-10.68-1.63-4.11-7.19-3.88-10.85-4.03-3.4-.14-6.85-.34-10.25-.09-16.61,1.19-14.04,1.56-20.06,2.46-3.89,.58-8.84-1.47-8.84,5.93l-3.21-.05c.05-4.62,.96-9.04,4.45-9.71,2.02-.39,4.19,0,6.23-.22,2.74-.29,5.42-1.02,8.13-1.38,4.49-.57,8.98-.6,13.47-1.21,3.6-.49,7.42,.06,11.01,.29,3.36,.22,6.88,.29,9.87,1.98,1.17,.66,2.91,1.47,3.7,2.57,.99,1.38,.66,3.48,.83,5.09,.65,6.25,2.38,7.72,4.21,20.73Zm-17.31,194.51c.29,6.41-4.94,4.46-6.2,7.83-.84,2.25-.44,5.09-.6,7.43-.36,5.22-.96,.57-1.17,15.42-.14,9.66-1.18,19.19-1.48,28.85-.1,3.27-2.54,26.3-2.97,28.73-.1,.56-.19,1.12-.29,1.68l-3.06-.53c.86-5.3,.67-10.76,1.2-16.1,.2-2.08,1.56-13.26,2.62-30.78,.65-10.83-.53-15.62,1.05-23.91,.44-2.28,.23-4.68,.05-6.98-.18-2.35-.18-3.09-2.57-3.73-2.64-.69-5.22-.73-7.25-2.84-2.32-2.41-6.66-12.42-10.61-22.42l3.14-1.23c2.3,5.73,4.75,11.24,7.1,15.3,1.43,2.46,2.13,5.63,5.13,6.46,3.52,.97,7.87,.7,10.9-1.59,2.23-1.69,.83-6.72,.67-9.17-.88-13.59-2.11-26.96-7.21-39.67-2.4-6.01-7.67-24.76-8.66-28.02-1.19-3.94-2.73-7.77-3.82-11.75-2.2-7.99-5.2-15.79-8.15-23.53-10.17-26.64-1.88-2.24-12.99-41.13-2.12-7.39-5.63-14.36-7.59-21.74-1.03-3.86-7.21-21.07-8.28-23.48-1.9-4.23-4.08-8.11-5.71-12.47-4.43-11.87-15.72-29.37-26.46-17.53-5.3,5.84-9.72,12.03-13.69,18.89-2.2,3.8-3.51,11.64-6.65,20.47-.62,1.77-1.54,3.39-2.22,5.13-.79,2.05-1.1,4.21-1.73,6.3-.95,3.22-3.17,5.84-4.49,8.91l-2.76-1.01c1.46-3.57,2.85-7.21,4.12-11.01,1.27-3.84,3.29-7.41,4.42-11.29,4.18-14.34,2.31-13.38,9.31-24.72,4.43-7.17,9.91-15.79,17.94-19.32,8.59-3.75,17.22,6.2,20.92,12.87,2.19,3.92,3.99,7.83,5.54,12.02,2.97,8.1,2.05,1.37,10.14,25.38,1.5,4.43,2.72,9.06,4.49,13.38,7.52,18.43,5.53,15.94,9.17,28.16,1.35,4.53,2.83,9,3.99,13.59,.68,2.72,2.56,10.9,4.47,9.4,.57-.43,.79-1.46,.88-2.92l3.25,.14c-.27,4.42-.49,8.69-.42,9.79,.28,4.77,.4,8.19,8.47,31.43,4.19,12.09,2.74,8.84,3.86-7.52,.25-3.6,.92-7.18,1.1-10.8,.27-5.36-.32-10.74-.17-16.12,.17-6.14,.8-12.2,.4-18.34-1.06-15.76-.75-22.56-.2-27.26l2.73,.32c-.16,1.25,.08,1.37,.14,6.3,.06,5.47-.44,15.08,.57,20.86,.41,2.33-.02,4.51-.17,6.87-.17,2.67,.24,5.35,.08,8.01-.08,1.26-.5,2.44-.62,3.68-.44,4.31,.41,8.7,.31,13.01-.06,2.14-.66,16.59-1.26,21.95-.45,3.95,1.17,14.5,.65,20.5-.63,7.31,4.6,11.49,6.81,22.76,1.47,7.49,2.62,10.88,3.84,37.13Zm-15.77,89.41l3.06,.53c-1.29,7.46-2.42,14.8-2.56,22.38-.1,5.78-1,11.5-1.16,17.26-.19,7.27,.15,14.42-1.19,21.57-.85,4.52-.34,9.31-.58,13.88-.22,4.16-.92,8.27-1.19,12.43l-3.19-.2c1.8-27.26,3.55-70.65,4.02-74.76,.48-4.09,1.85-7.99,2.61-12.03,.07-.35,.12-.7,.18-1.05Zm-8.75-274.77c2.41,.4,1.94,1.73,1.97,4.07,.39,32.84-1.26,34.13-2.76,47.5-.11,1.03-.49,6.23-.79,11.24l-3.25-.14c.11-1.88,.01-4.46,.12-7.43,.35-9.56,3.51-16.54,3.13-41.08-.03-2.12,1.01-8.48-1.57-9.59-2.18-.93-9.2,.8-11.93,.74-4.69-.11-3.24-4.93-4.25-22.16-.11-1.94-.78-6.28-.75-10.45l3.21,.05c0,1.38,.17,3.09,.56,5.21,.68,3.72,.48,7.53,.97,11.29,.45,3.4-.32,7.16,.43,10.48,.83,3.65,5.08-1.34,14.92,.28Zm-3.64,166.76l-3.14,1.23c-3.74-9.39-7.13-18.8-8.2-21.92-1.59-4.61-4.03-8.82-5.59-13.39-1.86-5.48-2.81-10.99-5.2-16.32-2.15-4.82-2.71-10.14-4.64-15.04-1.43-3.63-3.08-7.16-4.34-10.85-.65-1.9-7.95-23.6-10.58-29.09-12.48-26.11-17.88-31.49-24.3-21.87-11.42,17.1-16.99,43-17.32,46.57-.46,4.95-1.4,9.93-2.44,14.79-.83,3.91-.99,7.91-1.78,11.82-.95,4.74-2.22,9.38-3,14.16-1.95,11.97-2.61,13.78-3.61,17.05l-2.82-.88c1.89-6.22,2.31-13.02,3.56-19.36,1.84-9.36,.82,.82,4.57-23.27,.43-2.72,1.05-5.42,1.39-8.15,.59-4.62,.84-9.23,2.1-13.73,7.45-26.54,8.8-26.07,11.82-32.27,3.56-7.29,3.27-8.84,9.43-13.98,11-9.2,24.84,22.58,29.44,36.14,1.45,4.29,3.77,8.42,4.96,12.76,.52,1.91,.82,3.82,1.48,5.71,2.3,6.59,5.38,12.92,7.18,19.68,1.19,4.42,6.55,21.56,10.91,31.92,.82,1.95,5.09,15.68,10.13,28.29Zm-12.86,11.18c1.65,2.15,2.16,4.6,2.1,7.21-.22,7.68,.75,9.72-.29,29.02-.1,1.89,.2,5.25-1.46,6.62-1.08,.91-20.71,6.16-25.92,5.12-2.62-.52-2.08-3.94-2.15-5.81-.36-10.51-1.2-5.94-1.38-18.19-.14-8.68-.29-15.17,.74-17.09,6.33-11.76,27.47-8.03,28.38-6.88Zm-5.15,25.6c4.03-.42,3.97-2.08,3.72-5.69-.08-1.05,.09-3.01-.92-3.66-1.08-.68-4.02,.06-5.19,.18-3.32,.34-3.26,1.69-3.08,4.79,.06,1.1-.19,3.67,.88,4.45,1,.71,3.53,.03,4.59-.08Zm.52,14.83c3.19-.92,3.07-4.17,2.95-7.1-.12-3.07-3.05-3.31-5.65-3.17-3.8,.2-3.18,2.42-2.68,5.63,.18,1.2,.29,3.88,1.16,4.82,.95,1.04,3.01,.18,4.24-.17Zm1.04-28.71c2.66-1.11,2.2-7.09,.24-8.68-1.42-1.16-5.65-.66-6.83,.82-.75,.94-.57,3-.62,4.1-.05,.92-.4,2.75,.12,3.64,1.08,1.78,5.64,.73,7.09,.12Zm-9.77,29.32c.65-1.48-.1-3.95-.27-5.47-.41-3.67,.17-6.16-8.98-4.78-1.44,.23-2.23,.48-2.41,2.01-.25,2.06,.29,4.45,.44,6.53,.08,1.13-.19,3.63,.87,4.46,1.38,1.1,4.88-.19,6.25-.57,1.38-.37,3.47-.69,4.1-2.18Zm-1.23-30.74c.06-1.2,.43-4.18-.46-5.16-.69-.77-1.55-.31-2.37-.14-1.06,.23-1.78,.26-2.87,.18-3.02-.23-5.51,2.38-5.35,5.46,.19,3.68,3.94,2.41,6.5,2.41s4.38,.12,4.54-2.76Zm-1.11,16.32c2.9-.44,2.12-6.93,.84-8.69-.7-.97-1.73-1.1-2.87-1.14-7.21-.28-7.52,.33-7.77,4.91-.06,1.12-.46,3.5,.24,4.53,.62,.93,1.95,.75,2.95,.74,2.18-.02,4.46-.01,6.62-.34Zm-9.69-101.37c1.37,3.04,.5,5.47-.26,8.52-.35,1.4-.76,2.8-1.26,4.18l-3-1.02c.5-1.47,.86-2.99,1.02-4.54,.61-6.15-8.8-3.56-12.2-3.05-.87,.12-2.48,.11-3.16,.82-.8,.82-.65,2.79-.79,3.84-.07,.54-.24,1.2-.41,2.03l-3.17-.35c.33-1.88,.48-3.88-.46-5-1.04-1.25-4.94-.26-6.47-.23-4.6,.11-12.01-1.78-9.62,4.12l-3.17,.85c-.53-1.36-.83-2.47-.85-3.04-.05-1.17,.61-2.08,.9-3.21,.5-1.98,1.05-3.52,2.19-5.31,.52-.82,1.08-1.76,1.7-2.76l2.8,1.5c-.76,1.29-1.59,2.53-.26,3.41,1.26,.83,3.4,.61,4.78,.59,2.24-.03,5.32,.28,7.47-.53,1.71-.66,1.31-2.39,1.33-3.94,.01-2.06,.02-4.19-.24-6.24-.6-4.74-4.76-2.82-8.54,.94l-3-1.59c2.5-2.69,5.85-5.17,10.65-6.62,5.18-1.56,4.16-2.24,10.66,.02,10.3,3.57,10.89,11.1,13.39,16.61Zm-6.23-1.35c1.46-1.46-.68-8.16-6.3-10.51-1.6-.68-4.63-2.63-5.96-.61-.62,.96-.46,2.61-.5,3.67-.07,2.22-.27,4.6-.01,6.81,.42,3.46,4.17,1.99,6.64,1.6,1.26-.2,5.17,.01,6.13-.95Zm1.71,13.03l3,1.02c-.89,2.61-2.05,5.14-3.48,7.49-1.96,3.25-7.02,6.06-10.73,6.63-2.14,.33-4.4,.27-6.56,.25-4.09-.03-7.68,1.29-16.26-9.17-2.01-2.45-3.55-5.45-4.42-7.73l3.17-.85c.53,1.31,1.55,3.01,3.19,5.21,1.57,2.1,3.34,3.94,5.47,5.46,1.65,1.18,4.92,4.92,7.01,2.27,.67-.85,.69-2.24,.54-3.73l3.29-.42c.11,.93,.29,1.95,.54,3.07,.71,3.2,4.24,2.31,6.5,1.14,3.17-1.64,5.36-3.12,6.92-6.35,.68-1.39,1.29-2.83,1.79-4.31Zm-18.72-1.26l3.17,.35c-.33,1.62-.66,3.92-.22,7.34l-3.29,.42c-.16-1.63-.5-3.37-.35-4.57,.1-.88,.44-2.19,.68-3.55Zm-7.06,87.86c.33,3.55,.46,6.79,.34,8.96-.22,3.6-1.35,7.07-1.28,10.71,.06,3.17,.2,4.44-3.04,5.56-1.68,.58-19.81,1.73-21.82,1.82-1.7,.08-2.65,.39-3.61-1.2-1.31-2.16-.71-5.45-.82-7.84-.14-3.13-.43-6.31-.73-9.52l3.21-.29c.18,1.58,1.37,2.57,6.06,1.76,2.56-.44,3.04-.49,2.87-6.87-.01-.33,.02-.86,.02-1.43l3.39-.05c0,1.18,.1,2.38,.1,3.22,0,1.03-.27,2.92,.69,3.65,.96,.73,3.13,.11,4.16,0,3.46-.41,7.06-.42,7.16-4.49,.03-.88,.24-2.44,.06-3.72l3.24-.28Zm-4.29,17.44c.12-1.3,.86-4.02,.25-5.3-1-2.1-7.16,.01-8.72,.62-1.34,.52-1.86,1.16-2.02,2.58-.15,1.34-.23,5,.78,5.96,1.21,1.17,4.68,.78,6.28,.82,.96,.01,1.72,.09,2.42-.61,.96-.96,.88-2.83,1.01-4.07Zm-13.75-.12c.06-3.04-.82-3.8-3.82-3.51-5.51,.5-4.71,.8-4.88,6.01-.03,1.04-.24,2.21,.57,3,1.17,1.16,3.6,.31,5.09,.31,3.3,0,2.99-3.14,3.05-5.8Zm18.05-17.31l-3.24,.28c-.09-.62-.27-1.18-.61-1.54-1.03-1.09-3.63-.78-4.96-.96-1.7-.24-4.74-1.34-5.95,.46-.53,.79-.66,2.07-.65,3.38l-3.39,.05c0-.87-.07-1.82-.44-2.27-.82-.94-3.93-.53-4.96-.54-.5-.01-1.43-.15-2.23-.11l-.02-2.91c.75,0,1.79-.35,3.1-.61,1.46-.29,3.84-.35,4.51-1.89,.26-.59,.35-1.33,.35-2.11h3.13c-.02,.26-.02,.52,.01,.77,.19,1.38,.51,1.34,1.71,1.39,1.96,.1,6.55,.82,8.09-.31,.8-.59,.96-1.87,.75-3.31l3.29-.61c.66,3.43,1.19,7.3,1.52,10.84Zm-4.41-108.3l3,1.59c-1.71,1.69-3.34,3.76-4.53,5.78l-2.8-1.5c1.13-1.85,2.5-3.91,4.33-5.87Zm2.89,97.45l-3.29,.61c-.41-2.67-2.12-5.91-3.46-6.47-.83-.35-1.94-.2-2.83-.4-.82-.18-1.72-.71-2.58-.59-3.07,.42-1.42,4.6-1.39,6.5,.01,.79-.24,1.61-.29,2.4h-3.13c0-1.5-.33-3.16-.46-4.31-.15-1.25-.17-2.96-1.56-3.4-1.51-.49-4.11,.75-5.28,1.6-2.15,1.55-1.88,5.85-1.96,8.26-.07,1.91,.39,2.46,1.3,2.46l.02,2.91c-.56,.01-1.05,.12-1.33,.42-.83,.91,.18,4,.23,5.13,.05,1.29-.36,2.75-.22,3.91l-3.21,.29c-.69-7.49-1.35-15.08,.34-22.39,2.15-9.37,25.29-9.14,27.03-4.82,.76,1.88,1.47,4.69,2.06,7.86Zm-10.17,123.14l3.32,.57c-2.04,8.17-2.37,13.32-18.57,18.56-1.33,.43-4.38,.42-5.38,1.54-.95,1.07-.31,3.08-.2,4.34,.68,8.45-.08,28.41-.29,31.77-.4,6.27,.4,12.5,.46,18.76,.03,4.03-.51,7.97-.8,11.98-.02,.25-.03,.57-.06,.92l-3.22-.15c.29-6.93,.35-14.88-.2-25.58-.46-9.2,1.48-17.78,.16-35.42-.15-2.02,.32-5.76-1.35-7.32-.91-.86-2.3-.92-3.42-1.34-4.15-1.56-8.98-6.66-11.83-9.85-4.12-4.62-6.87-10.2-10.54-15.17-12.03-16.28-18.21-35.6-28.29-52.98-2.83-4.87-4.87-10.11-7.59-15.01-1-1.81-1.9-3.46-2.72-4.95l2.92-.82c.25,.44,.51,.87,.78,1.3,4.4,6.9,7.32,14.64,11.52,21.64,4.63,7.72,8.35,16.23,11.9,24.45,.99,2.28,2.48,4.32,3.6,6.53,1.08,2.12,1.8,4.42,3.05,6.45,2.5,4.06,5.6,7.76,8.13,11.8,4.61,7.34,9.33,14.9,16.21,20.41,8.34,6.68,23.9,1.63,29.34-5.3,1.27-1.62,1.59-3.69,2.36-5.57,.2-.51,.48-1.01,.7-1.54Zm-13.61-295.62c-.09,.2-.17,.42-.25,.62-1.26,3.37-2.91,6.88-3.87,10.32-.39,1.4-.46,2.81-1.05,4.16-.95,2.14-2.42,4.06-3.52,6.12-1.9,3.6-2.88,7.51-4.5,11.23-4.98,11.44-3.85,16.16-6.23,22.03-1.62,4-2.4,8.04-3.51,12.19-.6,2.21-1.45,4.29-2.18,6.45-.58,1.74-.45,3.58-.82,5.38-.61,3.08-2.13,5.86-2.93,8.91-1.82,6.95-2.54,14.33-5.03,21.07-1.51,4.06-1.47,8.38-2.5,12.54-.46,1.89-1.18,3.71-1.35,5.67-.17,1.78-.1,3.5-.43,5.27-1.21,6.54-3.12,12.88-4.85,19.3l-2.96-.8c1.39-5.34,3.31-14.1,5.05-24.42,1.44-8.57,3.67-16.98,5.36-25.48,1.81-9.1,5.3-17.89,6.96-27,1.59-8.76,4.77-17.21,6.92-25.83,4.78-19.24,12.56-33.27,18.93-48.72l2.76,1.01Zm-12.22,444.11h3.09c0,10.32-.69,8.7-.77,18.33-.05,5.72-.02,11.4-.5,17.11-2.13,25.63,3.29,44.55-6.89,61.43-3.42,5.69-6.92,10.14-23.79,11.42-5.29,.41-10.52,1.26-15.8,1.72-5.12,.44-10.35,.16-15.42,1.04-4.37,.76-2.65,1.71-18.39,2.04-5.61,.11-11.76,.79-17.32-.03-5.27-.78-10.92,.03-16.25-.11-12.71-.37-24.08-2.18-24.74-2.21-58.81-2.42-55.79-1.09-57.57-16.87,0,0-1.5-16.68-5.39-57.73-.08-.77-.15-1.54-.2-2.31l3.31-.31c.25,2.75,.75,5.47,1.05,8.2,.69,6.08,.91,12.13,1.98,18.17,1.1,6.29,1.33,12.91,1.6,19.27,1.11,26.34,5.19,24.18,12.46,25.28,3.24,.49,6.48,.46,9.74,.66,2.93,.17,5.8,.6,8.76,.66,3.18,.06,6.38-.05,9.55,.28,1.7,.17,6.12,1.46,7.65,.19,2.49-2.08,.86-43.48,.68-54.1-.11-6.69,.16-13.39,.35-20.1l2.53,.03c-.07,3.47,.17,6.97,.23,10.42,.07,5.37-.45,11.01,.44,16.33,.48,2.89,.65,7.23,.65,11.8,0,6.31-.32,13.05-.54,17-.27,4.74,.86,3.89-.01,14.85-.08,1.03-.52,2.64,.12,3.58,.71,1.04,2.41,1.21,3.31,.33,1.72-1.68,.82-16.12,.66-18.48-.05-.67-.09-1.41-.12-2.2l2.85-.14c.01,.17,.01,.28,.02,.35,.28,2.38,1.16,4.45,1.17,6.9,.03,9.53-2.19,13,1.81,14.49,3.8,1.42,8.42,1.09,12.42,1.4,16.74,1.34,2.75-.08,30.5,.49,2.21,.05,5.09,.57,7.26-.03,3.14-.86,1.27-5.42,1-7.69-.48-3.92-.44-7.86-.32-11.81l3.18,.09c-.07,2.58,.01,5.16,.48,7.7,.58,3.16,.62,14.11,6.25,11.19,1.79-.93,1.08-3.68,1.05-5.36-.11-8.03-.62-20.37-.37-31.56,.01-.5,.07-2.22,.16-4.79l2.79,.1c-.08,2.48-.1,4.33-.02,5.38,1.02,13.63-.82,32.73,2.15,34.58,1.51,.95,5.48-.18,7.07-.4,5.52-.73,11.16-.22,16.71-.85,3.35-.39,1.36-.82,15.28-1.89,5.08-.39,10.74-1.94,13.82-6.3,12.55-17.81,6.06-33.36,8.45-61.4,.33-3.81,.96-7.27,.8-11.12-.12-3.04-.54-6.15-.34-9.2,.16-2.44,.76-4.75,.8-7.24,.05-2.86,.53-5.67,.58-8.52v-.1Zm-38.1-289.51l-2.81,1.48c-1.61-2.98-3.42-5.81-5.1-8.76-.51-.88-15.07-29.82-17.42-34.78-1.99-4.21-3.73-8.5-5.96-12.6-4.95-9.11-4.87-6.74-10.04-19.06-.87-2.08-2.27-3.72-3.32-5.69-7.85-14.66-10.89-20.08-23.75-20.27-4.35-.07-6.93,7.13-8.04,9.28-.93,1.79-1.65,2.55-3.6,6.01l-2.9-1.76c1.43-2.55,2.93-5.06,4.15-7.72,1.86-4.06,5.4-8.65,9.39-10.76,2.28-1.2,3.5,.27,5.83,.74,8.07,1.62,11.87,5.08,16.05,12.08,13.7,22.92,6.7,11.98,11.19,20.71,1.95,3.77,4.27,7.33,6.28,11.07,2.29,4.29,13.65,28.59,17.26,35.27,1.18,2.16,2.49,4.24,3.63,6.42,1.33,2.52,2.25,5.2,3.57,7.7,1.08,2.06,2.45,3.92,3.52,5.97,.59,1.11,1.21,3.14,2.06,4.66Zm-.53,187.28c1.87,41.29-5.11,35.82-20.32,37.48-3.94,.43-8.01,1.8-12.01,1.04-9.22-1.72-7.23-22.77-7.17-32.96,.26-40.08,2.08-48.13,15.94-48.65,4.51-.17,8.52-.66,12.86,.97,6.76,2.56,5.79,5.59,7.51,8.55,1.63,2.83,1.54,6.25,2.12,9.44,1.44,7.86,.71,16.17,1.08,24.12Zm-10.22,32.47c4.64-.43,7.77-2.83,6.57-29.61-.09-2.02,.34-4.78-2.12-5.19-3-.5-7.52-.2-10.41,.88-2.78,1.03-1.98,4.19-2.03,6.71-.16,7.3-1.55,24.72,.02,26.9,1.31,1.84,6.22,.48,7.96,.31Zm3.69-39.59c3.64-.25,2.92,.05,1.65-14.07-.53-5.82-1.39-15.44-8.19-17.46-4.98-1.47-4.08,10.98-4.17,13.28-.25,5.65-.76,11.39-.58,17.05,.12,3.85,1.03,1.88,11.28,1.2Zm-14.19-25.83c.28-3.16,.1-6.37-3.92-6.25-6.71,.18-9.05,6.56-9.62,12.12-.62,5.96-1.99,12.7-1.42,18.7,.25,2.58,2.33,2.05,4.45,2.12,1.95,.06,8.43,1.67,9.61-.14,.97-1.47,.44-4.55,.44-6.18,.01-3.24,.39-6.44,.48-9.67,.09-3.59-.34-7.12-.02-10.71Zm-4.38,66.93c3.38-.49,2.72-2.81,2.75-5.7,.37-31.33,3.17-30.11-6.06-30.22-8.67-.1-7.61,3.68-7.66,6.41-.14,8.87,.69,6.46-.14,10.89-.29,1.56,.07,3.08,.29,4.63,.54,3.68,.07,8.24,1.63,11.65,1.63,3.56,5.88,2.81,9.18,2.33Zm1.97-160.39l-2.92,.82c-12.22-22.48-4.72-12.24-17.49-35.29-2.12-3.81-4.26-7.34-5.96-11.39-1.27-3.04-2.42-6.13-4.01-9.03-5.59-10.21-3.32-8.11-7.77-16.26-1.39-2.55-2.49-5.63-4.1-8-2.82-4.16-5.55,4.74-6.83,6.82-1.73,2.83-3.85,5.51-5.27,8.51-5.94,12.59,.19,.56-13.69,25.55-4.16,7.49-1.65,1.54-6.72,11.51-2.29,4.5-5.1,8.55-7.92,12.7-2.11,3.09-6.17,13.53-8.02,16.17-6.75,9.69-5.3,12.66-10.94,21.99-2.87,4.75-4.96,10.12-7.47,15.05-.32,.61-6.91,12.02-8.77,15.25l-2.71-1.62c9.45-17.36,17.96-34.06,18.51-35.1,2.03-3.82,3.1-8.07,5.25-11.8,1.27-2.2,2.74-4.26,3.93-6.5,2.29-4.32,.36-3.25,9.23-18.12,2.07-3.47,3.89-7.08,5.97-10.55,1.14-1.91,15.7-24.93,18.61-32.89,1.67-4.54,5.01-7.97,7.11-12.25,1.09-2.21,1.91-4.52,3.14-6.65,1.01-1.79,1.85-4.78,3.47-6.05,3.36-2.62,5.13,3.92,6.14,6.1,4.15,8.89,3.97,6.3,7.08,14.57,1.01,2.67,7.65,15.49,8.73,18.32,3.53,9.21,9.14,17.54,13.42,26.45,.91,1.88,1.51,3.88,2.32,5.78,.94,2.18,2.24,4.14,3.24,6.29,1.5,3.21,2.69,6.55,4.42,9.63Zm-12.25,202.51c14.12,8.35,9.36,72.54,8.7,93.18l-2.79-.1c.45-13.69,1.62-51.45,.37-58.02-.95-4.96-.93-9.95-1.64-14.96-2.9-20.34-6.51-17.79-18.34-18.29-1.9-.08-3.44-.94-5.27-1.37-2.69-.63-5.51-.78-8.22-1.26-3.31-.57-5.78-.42-9.11-.02-2.46,.29-4.62-.17-7.04-.25-8.27-.29-20.3,6.63-21.93,14.74-.59,2.96-.52,6.02-.61,9.02-.08,2.7-.89,5.81-.51,8.45,1.08,7.34,1.61,14.13,.52,21.54-.27,1.84-.39,3.68-.41,5.54l-2.53-.03c.2-6.74,.32-13.47-.11-20.19-2.04-31.92,2.57-31.93,9.37-37.24,5.42-4.24,11.1-4.91,13.02-5.33l18.1-.5c3.48,.69,7.04,.92,10.49,1.65,3,.62,5.17,1.17,8.28,1.09,3.51-.09,6.62,.54,9.65,2.35Zm-4.18,7.66c5.79,3.4,4.18,24.38,4.11,39.23h-3c.18-16.17-.25-31.74-2.42-34.88-1.39-2.02-6.96-1.69-12.2-1.77-2.68-.03-5.49-.35-8.18-.07l-.34-3.37c2.53-.28,5.19-.49,8.07-.53,4.18-.08,10.13-.86,13.97,1.38Zm-19.78,13.18c7.68,.58,12.97,14.85,9.62,21.97-2.96,6.24-3.43,5.55-6.83,7.9-3.61,2.5-5.91,3.94-10.41,2.61-6.75-1.99-10.84-8.44-11.77-15.18-.43-3.17,.68-5.12,2.25-7.73,.75-1.26,1.29-2.73,2.24-3.84,1.99-2.33,9.7-6.11,14.9-5.72Zm6.57,20.45c.68-1.67,.35-4.57,.25-6.39-.19-3.32-2.21-6.63-4.75-8.76-1.29-1.09-2.49-1.28-4.12-.95-4.21,.84-9.61,.59-13.31,8.43-.61,1.27-.65,2.4-.45,3.78,.66,4.78,.46,7.21,6.58,11.06,7.52,4.74,14.56-4.1,15.8-7.17Zm-29.64-390.81l2.9,1.76c-.92,1.65-2.11,3.92-3.73,7.19l-3.07-1.01c.48-1.04,.97-2.14,1.5-3.29,.71-1.6,1.54-3.14,2.4-4.66Zm-7.99,284.11c.03,5.93,.18,11.87-.03,17.8-.08,1.98-.6,3.9-.86,5.84l-3.13-.4c.18-1.34,.35-2.65,.39-4.06,.86-34.77-.69-47.26-1.71-57.42-.26-2.71-.5-5.23-.63-7.99-.14-2.61,1.48-11.43-14.27-8.41-2.24,.43-6.07-.14-7.96,1.25-.65,.48-.77,.79-.6,1.02l-2.79,.09c-.45-.58-3.65-1.01-4.18-1.13-1.62-.37-2.2,.06-3.7,.67-4.1,1.64-10.51,1.34-12.34,6.16-.87,2.32-.77,4.82-1.03,7.24-.03,.34-.08,.69-.14,1.03-.89,5.57-.35,11.46-1.08,18.73-.12,1.29-.19,2.59-.23,3.91h-3.17c.02-4.23,.11-8.03,.32-10.76,1.28-17.66-2.04-26.43,14.26-29.53,1.43-.27,2.74-.83,4.19-1,2.66-.31,5.36-.22,8.02-.5,2.11-.22,4.16-.78,6.26-.97,2.68-.25,5.02-1.07,7.65-1.52,4.43-.75,9.73,1.36,12.38,4.92,2.06,2.76,2.34,5.55,2.49,8.88,.6,14.33,1.63,6.41,1.89,46.15Zm-.95,26.89c.57,4.34-1.34,8.94-5.29,11.01-4.13,2.18-10.56,2.73-15.15,1.86-5.96-1.12-12.07-1.08-18.08-1.57-5.78-.49-12.36-.53-15.28-6.24-1.11-2.16-1.35-4.17-1.44-6.62-.11-3.42-.66-6.81-.79-10.25-.11-3.01-.58-18.58-.49-30.75h3.17c-.09,4.71,.35,9.51,.5,14.13,.19,6.68-.1,13.63,.78,20.28,.45,3.48-.1,7.69,1.82,10.76,2.53,4.03,9.74,3.74,11.65,4.15,1.02,.23,2.87,1,3.8,.14,.89-.82-3.57-1.11-3.47-1.11-2.04-.14-4.07-.88-5.8-1.93-3.66-2.16-3.48-5.16-3.83-9.02-.34-3.74-1.21-7.77-.82-11.52,.28-2.62,.15-4.78-.14-7.42-.83-7.51-.24-15.27-.24-22.82,0-9.1-.24-15.02,.33-19.08,.68-4.92,2.51-7.1,7.3-8.88,2.1-.77,3.98-1,5.95-2.15,.32-.18,4.88-2.18,4.91-2.01,0-.03-.02-.08-.05-.11l2.79-.09c.37,.5,2.24,.49,3.06,.46,2.61-.08,5.37-.94,7.96-.28,4.28,1.09,7.5,6.29,8.54,10.31,.24,.93,.43,2.21,.59,3.77,1.28,12.8-.09,43.93-.34,45.63-.18,1.3-.83,2.58-.93,3.86-.09,1.07,.29,1.99,.36,3.05,.08,1.26-.19,2.59-.29,3.85-.2,2.46-.03,5.18-.87,7.55-.58,1.64-1.63,4.2-3.15,5.2-2.55,1.68-9.44-.23-12.88,1.7-1.96,1.1-.73,1.63,.91,1.93,22.44,4.16,21-4.57,21.51-8.99,.1-.83,.22-1.64,.33-2.44l3.13,.4c-.14,1.08-.2,2.15-.06,3.25Zm-11.15-41.97c1.12-4.44-.34-17.83-.49-19.76-.32-4.18-.94-7.44-3.41-10.91-2.28-3.18-4.98-2.63-8.6-2.21-2.22,.26-3.82,.49-4.34,2.86-.49,2.2-1.03,26.14-1.05,28.07-.02,1.4-.48,3.49,.99,4.31,1.61,.88,5.26-.16,7-.28,2.62-.19,9.06,1.27,9.9-2.06Zm-.18,17.61c.01-.67,.15-9.45-.15-10.04-.77-1.51-3.8-1.07-5.25-1.11-3.23-.08-7.9-.59-10.95,.66-2.75,1.13-.82,2.31-.49,31.53,.01,1.2-.32,2.97,.27,4.07,1,1.89,3.91,.59,5.47,.33,2.97-.49,7.77,.29,8.85-3.09,1.16-3.64,.88-7.97,1.29-11.74,.37-3.56,.87-7.02,.95-10.61Zm-21-22.34c.05-1.31,.69-22.53,.12-23.73-.93-2.01-5.44-.97-7.14-.78-5.66,.65-5.63,4.23-5.86,9.29-.26,6.01-.29,15.95,.08,19.23,.18,1.68,.22,1.61,1.95,1.93,2.65,.48,7.18,2.84,9.81,1.01,1.46-1.03,.95-5.29,1.03-6.95Zm-4.06,48.35c5.52,.76,5.34,2.98,3.83-27.17-.1-2.07,1.27-7.93-.79-9.3-1.63-1.09-5.74-.61-7.57-.73-.71-.05-3.57-.62-4.1-.12-.92,.86,.32,15.15,.35,16.41,.58,20.53-.4,19.73,8.28,20.92Z"/>
    </g>
  </g>
</svg>